<?xml version="1.0" standalone="no"?>
<!DOCTYPE svg PUBLIC "-//W3C//DTD SVG 20010904//EN"
 "http://www.w3.org/TR/2001/REC-SVG-20010904/DTD/svg10.dtd">
<svg version="1.0" xmlns="http://www.w3.org/2000/svg"
 width="1024.000000pt" height="1024.000000pt" viewBox="0 0 1024.000000 1024.000000"
 preserveAspectRatio="xMidYMid meet">
<metadata>
Created by potrace 1.11, written by Peter Selinger 2001-2013
</metadata>
<g transform="translate(0.000000,1024.000000) scale(0.100000,-0.100000)"
fill="#000000" stroke="none">
<path d="M3300 10129 c0 -5 5 -7 10 -4 6 3 10 8 10 11 0 2 -4 4 -10 4 -5 0
-10 -5 -10 -11z"/>
<path d="M661 10034 c0 -11 3 -14 6 -6 3 7 2 16 -1 19 -3 4 -6 -2 -5 -13z"/>
<path d="M695 9999 c-3 -4 2 -6 10 -5 21 3 28 13 10 13 -9 0 -18 -4 -20 -8z"/>
<path d="M710 9950 c0 -5 5 -10 10 -10 6 0 10 5 10 10 0 6 -4 10 -10 10 -5 0
-10 -4 -10 -10z"/>
<path d="M5513 9765 c-3 -9 -3 -19 1 -22 3 -4 6 1 6 10 0 8 6 18 13 20 9 4 9
6 -1 6 -7 1 -15 -6 -19 -14z"/>
<path d="M2820 9730 c0 -5 5 -10 10 -10 6 0 10 5 10 10 0 6 -4 10 -10 10 -5 0
-10 -4 -10 -10z"/>
<path d="M7780 9649 c0 -5 5 -7 10 -4 6 3 10 8 10 11 0 2 -4 4 -10 4 -5 0 -10
-5 -10 -11z"/>
<path d="M145 9600 c-3 -5 -1 -10 4 -10 6 0 11 5 11 10 0 6 -2 10 -4 10 -3 0
-8 -4 -11 -10z"/>
<path d="M5130 9585 c0 -8 4 -15 10 -15 5 0 7 7 4 15 -4 8 -8 15 -10 15 -2 0
-4 -7 -4 -15z"/>
<path d="M3880 9350 c0 -5 5 -10 11 -10 5 0 7 5 4 10 -3 6 -8 10 -11 10 -2 0
-4 -4 -4 -10z"/>
<path d="M9995 9350 c-3 -5 -1 -10 4 -10 6 0 11 5 11 10 0 6 -2 10 -4 10 -3 0
-8 -4 -11 -10z"/>
<path d="M8918 9343 c7 -3 16 -2 19 1 4 3 -2 6 -13 5 -11 0 -14 -3 -6 -6z"/>
<path d="M4880 9305 c-91 -12 -210 -35 -265 -50 -55 -15 -110 -30 -122 -32
-13 -3 -21 -8 -19 -12 3 -4 -10 -8 -27 -8 -33 -1 -177 -58 -306 -120 -67 -33
-72 -37 -55 -50 10 -7 13 -13 8 -13 -6 0 -15 5 -20 10 -11 11 -139 -50 -160
-76 -6 -8 -15 -14 -21 -14 -21 0 -32 -22 -18 -36 17 -17 32 -18 38 -1 4 9 6 9
6 -1 1 -13 -39 -32 -73 -35 -10 -1 -21 -9 -24 -19 -2 -10 -11 -18 -20 -18 -13
0 -13 2 1 18 10 10 14 22 10 25 -6 7 12 10 52 9 17 -1 17 0 3 4 -10 3 -18 10
-18 16 0 10 -44 -14 -67 -38 -7 -7 -18 -15 -25 -17 -10 -4 -9 -8 2 -17 13 -10
12 -11 -3 -6 -25 8 -43 -4 -26 -16 10 -7 8 -8 -7 -4 -14 4 -31 -3 -55 -25 -19
-17 -44 -38 -57 -46 -13 -9 -20 -22 -17 -32 6 -19 -11 -49 -22 -38 -4 5 -1 12
7 17 8 5 12 11 10 14 -3 2 -16 -4 -30 -15 -21 -16 -23 -20 -10 -30 12 -8 11
-9 -6 -4 -16 4 -34 -7 -71 -42 -45 -42 -50 -51 -41 -70 13 -28 4 -55 -17 -47
-8 3 -15 11 -15 16 0 6 7 8 15 4 16 -6 22 19 7 28 -12 7 -44 -33 -36 -46 5 -7
2 -9 -9 -5 -10 4 -21 -2 -30 -16 -8 -12 -27 -35 -41 -50 -22 -24 -25 -32 -14
-45 10 -14 10 -15 -2 -5 -11 10 -17 9 -32 -4 -10 -9 -18 -22 -18 -29 0 -7 -3
-14 -8 -16 -11 -5 -72 -85 -72 -94 0 -5 -10 -21 -23 -36 -13 -14 -32 -44 -43
-65 -10 -21 -22 -39 -26 -41 -5 -2 -8 -7 -8 -11 0 -4 -21 -45 -46 -92 -25 -46
-59 -115 -75 -154 -17 -38 -37 -84 -45 -102 -18 -40 -18 -43 6 -38 11 2 32 -6
47 -19 25 -22 26 -27 18 -62 -12 -45 -45 -67 -82 -53 -21 8 -23 6 -23 -22 0
-31 -32 -84 -44 -72 -3 3 -6 -3 -6 -15 0 -11 5 -24 10 -27 17 -10 11 -25 -10
-25 -11 0 -20 -4 -20 -10 0 -5 5 -10 11 -10 8 0 8 -4 1 -12 -19 -23 -32 -130
-23 -188 8 -52 9 -50 11 45 1 55 4 92 7 83 2 -10 9 -18 14 -18 12 0 11 -40 -2
-78 -6 -17 -9 -43 -7 -59 4 -25 5 -23 13 15 4 23 11 42 15 42 4 0 8 19 8 43 0
23 2 58 6 77 4 28 4 30 -3 10 -9 -24 -9 -23 -10 8 -1 36 21 41 27 6 2 -10 7
-22 11 -26 11 -12 5 35 -7 59 -7 12 -12 26 -12 32 0 18 18 12 23 -6 2 -10 3
14 3 52 0 67 1 70 23 67 32 -3 90 35 97 64 4 13 11 24 18 23 21 -4 66 20 66
35 0 8 9 18 20 21 13 4 20 15 20 31 0 20 5 24 29 24 17 0 31 6 35 16 6 15 8
15 25 0 19 -18 76 -13 65 5 -10 16 -13 69 -5 69 5 0 12 15 15 34 5 28 10 33
27 29 11 -3 23 -12 26 -19 11 -28 19 -13 18 31 -2 35 -9 53 -28 73 -30 31 -37
54 -9 30 9 -9 34 -26 55 -37 l39 -22 40 41 c23 23 46 39 53 36 6 -2 11 3 11
13 1 62 3 68 30 63 31 -6 71 14 77 39 3 13 11 17 21 13 11 -4 16 -1 16 10 0
20 17 21 22 2 2 -12 8 -10 28 6 24 20 24 20 3 14 -17 -6 -23 -3 -23 8 0 9 5
16 10 16 6 0 10 7 10 15 0 8 7 15 15 15 31 0 65 31 65 59 -1 29 -20 70 -34 70
-5 0 -14 10 -20 23 -10 18 -19 22 -46 20 -18 -1 -40 -7 -47 -13 -7 -6 -21 -8
-30 -5 -15 5 -15 4 1 -9 11 -8 16 -15 12 -15 -5 0 -3 -7 4 -15 15 -18 0 -20
-19 -2 -11 10 -13 9 -9 -4 5 -12 -2 -15 -36 -15 l-41 1 1 -41 1 -41 -35 18
c-19 10 -39 16 -43 13 -5 -3 -9 2 -9 10 0 12 10 16 38 16 l37 1 -25 14 -25 14
28 1 c22 0 27 4 27 26 0 33 21 54 54 54 22 0 26 4 26 30 0 17 5 30 11 30 5 0
7 5 4 10 -4 6 8 10 30 10 23 0 35 -5 34 -12 -5 -43 15 -43 57 -1 16 16 24 35
24 58 0 34 1 35 40 35 l40 0 0 40 0 40 40 0 c29 0 40 -4 40 -15 0 -8 5 -15 10
-15 6 0 13 7 16 15 4 8 17 15 30 15 15 0 24 6 24 15 0 20 12 19 32 -4 14 -17
15 -21 3 -31 -8 -7 -20 -8 -26 -4 -9 5 -10 2 -6 -9 4 -11 1 -17 -8 -17 -8 0
-19 -9 -25 -20 -8 -15 -17 -19 -32 -14 -17 5 -19 3 -13 -15 5 -17 2 -21 -14
-21 -14 0 -21 -6 -21 -19 0 -10 -22 -39 -49 -63 -38 -35 -47 -48 -40 -61 10
-17 39 -13 39 7 0 6 41 49 91 96 51 47 103 96 116 109 19 20 32 24 68 22 43
-2 44 -2 43 27 -1 26 -3 29 -15 16 -27 -27 -37 -14 -10 14 15 15 27 33 27 40
0 7 6 12 13 12 8 0 24 11 37 25 18 19 33 25 68 25 38 0 44 3 40 18 -5 17 2 19
79 20 49 0 90 6 99 13 14 11 20 2 15 -24 -4 -21 34 1 40 23 6 21 7 22 8 4 1
-17 7 -20 39 -19 35 1 37 2 40 38 3 36 4 37 43 37 35 0 39 3 39 25 0 25 1 25
80 25 64 0 80 3 80 15 0 13 38 15 280 15 242 0 280 -2 280 -15 0 -12 16 -15
80 -15 47 0 80 -4 80 -10 0 -5 18 -10 40 -10 29 0 40 -4 40 -15 0 -11 -11 -15
-40 -15 -39 0 -40 -1 -40 -35 0 -19 1 -35 3 -36 1 0 74 -3 161 -6 l159 -5 -6
44 c-5 37 -4 39 4 16 9 -23 17 -28 45 -28 24 0 34 -5 34 -15 0 -12 16 -15 80
-15 l80 0 0 -40 0 -40 80 0 80 0 0 -40 0 -40 103 -1 c81 0 97 -3 80 -11 -14
-7 -23 -20 -22 -32 0 -12 3 -15 6 -8 6 14 43 16 43 2 0 -5 -7 -10 -15 -10 -8
0 -15 -7 -15 -16 0 -9 -6 -14 -13 -11 -7 2 -23 -11 -37 -29 -14 -18 -32 -34
-40 -35 -10 0 -11 -2 -3 -6 10 -3 10 -8 -1 -19 -8 -8 -17 -14 -19 -14 -3 0
-107 -101 -233 -225 -126 -124 -232 -225 -236 -225 -4 0 -8 -5 -8 -11 0 -17
59 29 136 105 39 39 103 100 142 136 40 36 72 71 72 78 0 6 6 12 13 12 6 0 35
20 62 45 33 29 56 43 67 39 10 -3 28 2 40 10 18 13 19 16 5 16 -9 0 -17 -4
-17 -10 0 -5 -7 -10 -15 -10 -8 0 -15 6 -15 13 0 16 71 62 90 59 13 -3 13 -2
0 7 -27 18 1 26 31 8 43 -24 49 -22 48 21 -1 37 -1 37 -9 7 -4 -16 -8 -24 -9
-17 0 6 -11 12 -23 12 l-23 0 25 20 c16 12 41 20 68 20 l42 0 0 -40 0 -40 40
0 40 0 0 -40 0 -41 83 3 82 3 1 33 c0 30 34 83 34 54 0 -7 -5 -12 -11 -12 -8
0 -10 -17 -6 -55 6 -56 -4 -79 -21 -48 -8 13 -10 9 -10 -20 0 -34 2 -37 29
-37 17 0 28 5 27 12 -4 16 23 21 42 7 11 -8 12 -12 3 -16 -8 -2 -13 -22 -13
-44 0 -39 0 -39 40 -39 l40 0 0 -40 0 -40 40 0 40 0 0 -40 c0 -39 1 -40 34
-40 32 0 35 -3 38 -32 2 -20 8 -32 16 -30 6 1 13 -4 14 -10 2 -22 4 -32 12
-66 6 -27 4 -36 -13 -51 -25 -22 -29 -66 -5 -57 9 3 18 6 20 6 2 0 4 9 4 20 0
13 7 20 20 20 13 0 20 -7 20 -19 0 -21 50 -39 71 -25 8 4 9 -3 4 -27 -4 -22
-3 -29 3 -21 7 11 11 10 16 -4 4 -10 2 -20 -4 -24 -15 -9 -3 -37 16 -37 9 0
20 10 24 23 10 25 26 38 33 27 3 -5 7 -24 11 -43 3 -19 3 -28 -2 -20 -4 8 -16
15 -27 15 -16 0 -20 -7 -22 -40 -1 -25 5 -47 15 -59 11 -11 17 -35 17 -64 0
-51 19 -66 48 -37 20 19 41 20 33 0 -3 -8 -1 -15 5 -15 6 0 9 -7 6 -15 -4 -8
-2 -17 3 -20 13 -8 13 -45 0 -45 -5 0 -10 -7 -10 -16 0 -14 3 -14 15 -4 9 7
15 8 15 2 0 -5 -7 -13 -16 -16 -14 -5 -16 -16 -11 -61 4 -44 3 -55 -9 -55 -8
0 -14 -5 -14 -11 0 -5 5 -7 10 -4 6 3 10 -2 10 -12 0 -14 2 -15 9 -4 6 10 13
10 28 2 15 -7 22 -26 28 -68 12 -91 10 -346 -2 -350 -7 -3 -9 -27 -5 -68 5
-67 -45 -445 -59 -445 -4 0 -5 -8 -2 -18 2 -10 -2 -24 -9 -30 -11 -9 -22 -4
-53 23 -21 19 -42 35 -46 35 -5 0 -19 11 -32 24 -13 13 -34 29 -48 36 -13 7
-56 39 -96 72 -39 32 -74 58 -78 58 -3 0 -17 11 -31 25 -14 14 -32 25 -42 25
-13 0 -12 -3 6 -16 12 -8 37 -28 54 -45 18 -16 38 -29 45 -29 7 0 13 -4 13 -9
0 -5 21 -24 46 -42 25 -19 71 -56 102 -82 32 -26 62 -51 67 -55 16 -12 80 -57
83 -58 2 -1 -7 -36 -19 -78 -12 -41 -25 -74 -28 -72 -3 2 -6 -11 -7 -29 0 -18
-8 -50 -18 -71 -9 -21 -21 -48 -25 -59 -5 -11 -16 -37 -25 -58 -9 -21 -16 -44
-16 -52 0 -8 -4 -15 -10 -15 -5 0 -10 -7 -10 -15 0 -8 -17 -50 -38 -93 -22
-42 -46 -93 -55 -112 -18 -37 -62 -118 -88 -160 -63 -102 -119 -199 -119 -209
0 -6 -3 -11 -8 -11 -4 0 -16 -17 -27 -37 -11 -21 -23 -40 -26 -43 -4 -3 -15
-21 -25 -40 -11 -19 -29 -49 -41 -67 -13 -17 -23 -33 -23 -36 0 -3 -18 -35
-41 -72 -22 -37 -43 -74 -47 -83 -16 -45 -30 -45 -80 -4 -26 21 -60 47 -77 58
-16 10 -40 29 -54 42 -42 39 -46 24 -3 -18 22 -22 43 -40 47 -40 12 0 125 -95
125 -105 0 -6 -6 -19 -14 -30 -7 -11 -16 -33 -20 -48 -4 -15 -11 -25 -16 -22
-6 3 -10 -1 -10 -9 0 -8 -13 -44 -30 -79 -16 -36 -30 -70 -30 -76 0 -6 -4 -11
-8 -11 -5 0 -14 -22 -21 -50 -7 -27 -17 -50 -22 -50 -5 0 -9 -10 -9 -22 0 -19
-2 -20 -11 -8 -8 12 -9 10 -7 -10 3 -22 -1 -25 -27 -23 -16 1 -22 -1 -12 -4
24 -7 22 -16 -15 -52 -22 -22 -38 -29 -52 -25 -12 3 -16 2 -9 -3 8 -6 6 -15
-9 -32 -16 -21 -21 -23 -30 -10 -7 11 -9 9 -5 -8 3 -14 0 -23 -7 -23 -7 0 -23
-12 -36 -27 -22 -26 -24 -26 -32 -7 -7 15 -8 14 -3 -6 4 -21 -8 -36 -73 -97
-42 -39 -79 -69 -81 -67 -2 2 4 13 15 25 19 21 19 21 -1 18 -15 -3 -21 -13
-23 -41 -2 -25 -9 -39 -22 -43 -10 -3 -28 -21 -41 -40 -13 -19 -31 -36 -39
-36 -8 -1 -24 -2 -35 -3 -12 -1 -21 -9 -21 -21 -1 -11 -2 -28 -3 -37 -1 -10
-6 -18 -13 -18 -7 0 -25 -12 -40 -27 -29 -27 -40 -17 -12 11 8 9 10 16 4 16
-6 0 -13 -7 -16 -15 -4 -10 -20 -15 -46 -15 l-41 0 6 -38 c3 -20 3 -31 0 -24
-6 15 -33 16 -33 1 0 -6 -9 -8 -21 -4 -15 5 -22 2 -26 -14 -6 -25 -23 -18 -23
10 0 10 -6 19 -12 19 -9 0 -12 16 -10 55 3 35 0 55 -7 55 -7 0 -11 -21 -11
-52 0 -28 -2 -49 -5 -46 -4 3 -8 91 -11 194 -3 104 -8 191 -10 193 -2 2 -5
-88 -6 -200 l-2 -204 -6 165 -6 165 -4 -205 c-3 -164 -5 -188 -10 -120 l-6 85
-2 -82 c-1 -45 -5 -88 -8 -97 -4 -11 -1 -16 10 -16 9 0 16 -5 16 -11 0 -6 -7
-8 -16 -5 -13 5 -15 2 -11 -15 4 -16 2 -19 -10 -15 -9 4 -27 -1 -40 -9 -25
-17 -75 -13 -100 7 -7 5 -18 6 -24 2 -7 -4 -9 -3 -5 4 3 6 2 13 -4 17 -19 11
-10 26 11 20 47 -15 71 -12 97 13 15 13 20 20 12 15 -8 -6 -24 -13 -34 -17
-16 -5 -17 -4 -6 9 7 8 9 15 6 15 -4 0 0 8 10 17 9 10 24 18 33 18 14 0 16 17
16 115 l0 115 -30 5 c-20 4 -29 11 -26 21 3 8 7 53 9 102 3 68 1 87 -10 88 -7
1 3 4 22 8 l35 6 3 113 3 112 -24 0 c-29 0 -38 30 -30 100 3 25 1 62 -5 83
-10 36 -10 37 21 45 l32 8 0 110 0 109 -25 3 c-25 3 -26 5 -22 70 4 87 10 112
24 109 7 -1 12 5 13 13 0 8 6 26 12 40 6 14 18 75 28 135 9 61 28 155 42 210
14 55 28 118 32 140 4 22 15 57 24 79 20 46 20 41 3 58 -7 8 -16 24 -20 36 -7
20 -5 21 22 16 26 -5 30 -3 35 23 3 15 8 35 12 44 4 11 -1 18 -15 22 -26 7
-60 -24 -60 -53 0 -11 -4 -20 -10 -20 -13 0 -13 37 0 45 6 4 8 10 5 15 -7 11
52 33 70 26 17 -6 34 22 19 33 -13 8 -46 62 -42 66 8 8 49 -36 43 -47 -4 -7 1
-4 9 6 9 11 16 27 16 36 0 8 6 39 14 68 7 29 10 52 5 52 -4 0 -10 -8 -12 -17
-4 -17 -5 -17 -6 0 0 9 9 27 21 39 15 15 21 34 22 69 1 26 4 45 8 43 11 -7 20
15 40 95 38 151 39 163 23 180 -8 9 -30 45 -48 80 -19 36 -38 66 -43 68 -5 2
-15 -14 -21 -34 -25 -90 -107 -383 -120 -433 -8 -30 -18 -68 -23 -85 -51 -184
-80 -300 -80 -316 0 -11 -4 -18 -8 -15 -5 3 -9 -13 -11 -35 -1 -30 1 -39 10
-33 8 4 9 3 5 -5 -4 -6 -11 -9 -16 -6 -5 3 -12 -11 -16 -32 -4 -21 -10 -42
-14 -48 -4 -5 -8 -17 -8 -25 0 -8 -16 -82 -36 -164 -19 -81 -40 -174 -46 -205
-11 -62 -18 -439 -19 -986 -1 -236 -5 -355 -11 -345 -5 8 -10 11 -10 5 0 -5
-5 -3 -10 5 -5 8 -8 22 -6 30 16 58 16 90 2 90 -8 0 -17 6 -20 13 -3 6 -5 -16
-3 -49 2 -48 0 -61 -10 -57 -7 3 -13 9 -13 13 0 4 -17 18 -37 30 -21 12 -49
35 -62 51 -13 16 -30 29 -37 29 -7 0 -26 11 -42 25 -17 14 -34 25 -38 25 -5 0
-29 19 -54 41 -70 63 -140 111 -140 96 0 -7 17 -27 37 -43 21 -16 44 -36 53
-44 21 -21 88 -70 94 -70 2 0 18 -12 35 -27 60 -56 78 -71 99 -82 12 -6 32
-22 44 -34 13 -12 34 -30 48 -40 19 -13 24 -24 22 -54 -2 -20 1 -39 6 -42 5
-3 13 -17 17 -31 7 -24 7 -24 -8 -5 -15 20 -16 19 -22 -7 -4 -14 -2 -35 4 -46
7 -13 7 -23 2 -27 -5 -3 -12 -19 -16 -35 -11 -52 -28 -34 -23 25 3 30 1 55 -4
55 -5 0 -6 5 -2 11 4 8 0 8 -15 0 -14 -8 -21 -8 -21 -1 0 6 -32 10 -80 10 -47
0 -80 -4 -80 -10 0 -15 -156 -13 -159 3 -1 6 -5 55 -9 107 l-8 95 -5 -95 c-3
-52 -2 -99 3 -105 4 -5 8 -16 8 -25 0 -12 -2 -13 -9 -1 -6 10 -9 2 -8 -24 2
-75 -87 -110 -162 -64 -18 11 -36 17 -39 14 -4 -3 0 -10 7 -14 9 -6 5 -8 -13
-8 -31 0 -33 7 -5 30 17 15 26 16 53 7 38 -12 74 -2 106 30 23 23 29 70 6 51
-26 -22 -38 13 -39 118 l-2 101 28 6 27 6 0 107 0 107 -30 11 c-23 9 -30 18
-30 37 0 15 7 29 15 32 21 8 19 26 -5 52 -12 12 -16 22 -10 22 5 0 10 18 10
40 0 36 3 40 25 40 l25 0 0 121 c0 104 -2 120 -15 115 -8 -3 -22 -3 -30 0 -12
5 -14 22 -10 93 2 47 5 93 5 102 0 9 10 20 22 26 20 9 22 17 23 99 1 49 0 70
-2 47 -5 -49 -18 -57 -26 -16 -5 29 7 63 23 63 6 0 10 7 10 16 0 10 -6 13 -19
9 -19 -6 -71 12 -83 29 -3 5 -4 15 -1 23 3 7 1 19 -5 26 -5 6 -10 41 -11 77
-1 52 -5 68 -21 82 -14 11 -20 28 -20 56 0 23 -6 45 -15 52 -8 7 -15 27 -15
44 0 17 -4 38 -10 46 -12 20 6 40 39 41 14 1 19 3 11 5 -17 5 -60 133 -60 177
0 23 -5 29 -30 33 -24 5 -32 14 -40 42 -5 20 -7 38 -5 40 2 3 0 12 -5 22 -9
16 -16 44 -27 103 -4 21 -1 27 12 27 12 0 15 5 9 23 -7 21 -12 66 -13 115 -1
15 -7 22 -21 22 -16 0 -20 -7 -21 -32 -1 -31 -1 -30 -19 17 -24 64 -24 72 -2
77 14 4 17 13 14 51 -2 26 -8 47 -13 47 -5 0 -9 15 -9 33 0 46 -27 97 -50 97
-24 0 -36 22 -44 84 -3 28 -10 52 -15 55 -5 4 -12 25 -16 49 -6 39 -5 42 15
42 16 0 20 4 16 15 -4 11 2 15 27 15 24 0 28 -3 17 -10 -9 -6 -10 -10 -3 -10
22 0 24 19 3 40 -15 15 -17 20 -5 20 10 0 15 10 15 28 0 21 2 24 10 12 5 -8 7
-25 4 -36 -5 -19 -2 -22 20 -20 14 0 26 7 26 14 0 6 -6 11 -12 10 -7 -2 -14 7
-16 20 -2 12 1 22 7 22 6 0 11 -7 11 -15 0 -8 6 -15 14 -15 8 0 26 -14 39 -32
l25 -31 43 22 c24 13 54 32 67 44 l22 20 23 -20 c32 -30 104 -59 162 -67 55
-6 105 6 175 44 82 44 107 50 126 29 18 -20 6 -27 -13 -8 -6 6 -17 9 -23 7
-20 -6 65 -57 114 -68 65 -14 132 -2 206 37 61 33 65 34 91 19 36 -22 46 -20
24 4 -17 18 -16 19 11 26 16 4 34 14 40 22 8 11 11 2 13 -39 1 -29 7 -57 14
-61 6 -4 31 -8 55 -8 29 0 42 -4 42 -14 0 -9 18 -16 56 -21 41 -5 54 -10 50
-20 -3 -8 -1 -17 4 -20 6 -4 10 -27 10 -53 0 -42 1 -44 15 -26 13 18 14 18 8
-6 -3 -14 -3 -22 1 -18 4 3 12 21 16 40 5 18 18 68 29 111 11 43 20 81 19 85
-1 4 2 14 5 22 29 68 67 195 67 223 0 27 -5 36 -25 45 -65 30 -121 -4 -148
-91 -36 -113 -112 -141 -184 -69 -21 21 -44 48 -52 60 -36 52 -111 52 -151 0
-72 -92 -105 -109 -171 -89 -29 9 -49 25 -74 60 -31 43 -69 71 -96 71 -23 0
-78 -33 -84 -48 -7 -24 -46 -67 -72 -80 -52 -28 -126 -3 -159 53 -24 40 -37
53 -68 65 -47 18 -84 1 -127 -55 -53 -70 -100 -90 -152 -64 -37 19 -75 70 -87
118 -7 25 -14 52 -16 59 -5 18 -50 32 -81 26 -16 -3 -39 -15 -53 -26 -21 -17
-25 -29 -25 -72 1 -46 52 -250 119 -471 14 -44 41 -141 60 -215 19 -74 53
-202 75 -285 22 -82 74 -287 116 -455 42 -168 81 -318 88 -335 14 -35 19
-1468 5 -1459 -4 3 -8 30 -8 60 0 32 -4 54 -11 54 -7 0 -8 18 -5 53 4 28 2 75
-3 102 -7 40 -9 21 -10 -102 -1 -89 -5 -154 -11 -158 -5 -3 -10 -15 -10 -26 0
-10 -4 -19 -10 -19 -5 0 -10 9 -10 20 0 17 -7 20 -40 20 -29 0 -40 4 -40 15 0
11 -11 15 -40 15 -36 0 -40 3 -40 25 0 25 -1 25 -81 25 l-82 0 7 40 6 40 -125
0 -125 0 0 40 0 40 -47 1 c-27 1 -54 1 -60 0 -7 -1 -13 4 -13 11 0 9 -3 9 -10
-2 -18 -28 -31 10 -28 82 2 38 1 68 -2 68 -12 0 -41 -137 -36 -165 5 -28 5
-27 -6 3 -9 26 -8 49 1 98 11 51 11 67 1 79 -10 13 -9 19 6 38 28 32 37 37 59
32 11 -3 14 -2 8 1 -7 3 -13 9 -13 13 0 9 0 9 189 195 115 114 143 146 127
146 -4 0 -136 -123 -161 -150 -5 -6 -21 -21 -34 -33 -14 -12 -33 -30 -43 -39
-10 -10 -18 -16 -18 -13 0 3 -9 1 -20 -5 -11 -6 -20 -17 -20 -25 0 -7 -16 -23
-35 -35 -19 -12 -40 -30 -45 -41 -7 -12 -16 -16 -28 -12 -9 3 -14 3 -10 -2 4
-4 3 -14 -3 -21 -12 -15 -4 -100 10 -109 5 -2 12 -80 15 -172 11 -262 15 -322
28 -372 13 -51 76 -183 117 -246 15 -22 33 -53 41 -70 8 -16 20 -36 27 -42 9
-10 255 -13 1121 -15 l1110 -3 26 -24 c29 -27 33 -41 12 -41 -14 0 -42 -28
-35 -34 2 -2 15 -7 28 -11 17 -5 22 -4 19 6 -3 8 7 20 21 27 14 7 19 10 10 8
-10 -2 -15 2 -14 12 1 21 24 62 25 45 0 -18 25 -16 44 2 8 8 19 15 25 15 6 0
11 7 11 15 0 8 9 15 20 15 12 0 17 5 14 14 -4 9 7 15 38 19 23 3 45 4 47 1 3
-2 7 -37 11 -77 6 -75 7 -74 26 23 4 21 11 30 25 30 10 0 19 5 19 10 0 6 -11
10 -24 10 -53 0 -56 6 -56 99 0 108 6 131 34 131 43 0 49 13 47 104 -2 84 -2
86 21 87 22 0 22 1 3 9 -19 8 -19 9 -1 9 33 1 10 12 -41 19 l-48 7 0 104 0
105 49 12 c27 7 52 17 55 22 3 5 13 12 21 15 12 4 11 6 -3 6 -13 1 -15 4 -7
14 44 52 49 61 44 82 -3 13 1 28 10 38 9 8 16 20 16 25 0 6 6 12 13 15 6 2
-18 7 -55 11 -37 4 -70 11 -72 15 -5 8 16 76 27 87 4 4 7 21 7 38 0 22 3 27 9
17 6 -10 11 -5 17 20 4 19 7 37 6 42 -1 4 16 7 38 7 l40 0 0 -54 c0 -62 9
-116 20 -116 4 0 5 11 2 25 -2 14 -1 42 3 62 6 32 9 35 15 18 7 -15 9 -9 9 23
1 39 -1 42 -25 42 l-27 0 8 103 c4 56 8 103 9 104 1 1 28 4 61 6 79 7 122 17
134 31 6 6 11 55 12 109 2 96 3 98 28 103 14 3 34 10 44 15 12 7 29 6 54 -3
29 -10 37 -10 40 0 3 6 11 12 18 12 16 0 45 38 45 59 0 9 -14 1 -38 -22 -51
-50 -95 -48 -62 3 8 11 12 12 18 3 5 -9 11 -6 21 9 11 18 11 20 -3 15 -24 -10
-21 35 4 51 12 7 20 8 20 2 0 -6 8 -5 20 2 23 15 27 38 5 38 -8 0 -15 5 -15
10 0 6 7 10 15 10 8 0 15 4 15 9 0 5 -28 12 -63 15 -60 7 -115 25 -74 26 9 0
17 4 17 9 0 6 11 22 25 37 13 14 22 30 19 35 -3 5 -1 9 4 9 5 0 17 18 28 40
31 64 44 52 44 -40 0 -44 4 -80 9 -80 20 0 71 62 71 86 0 13 4 24 10 24 5 0
12 11 16 25 3 14 9 25 13 25 4 0 8 7 8 15 0 11 -12 15 -46 16 -41 0 -105 17
-73 18 6 1 12 13 12 29 0 27 20 70 20 45 0 -7 4 -13 8 -13 12 0 32 46 32 71 0
21 19 59 35 71 6 4 31 8 56 8 46 0 46 1 53 38 3 20 6 69 6 108 l0 72 68 13
c53 10 62 14 42 19 l-25 7 25 5 25 5 -25 11 -25 11 28 0 c20 1 27 6 27 20 0
11 7 26 15 35 17 17 19 33 5 38 -6 2 -1 14 11 26 11 13 19 24 18 25 -2 1 -14
8 -26 15 -13 6 -41 12 -63 12 -44 0 -47 5 -26 47 29 58 46 104 46 124 0 18 4
20 26 15 23 -6 26 -4 21 14 -4 17 0 22 24 27 32 6 31 0 31 151 0 59 3 75 17
80 31 11 39 28 46 100 5 52 4 77 -5 87 -9 11 -10 15 -1 15 7 0 9 5 6 10 -3 6
-18 10 -33 10 l-27 0 3 114 c3 102 2 115 -14 118 -15 3 -17 16 -17 111 0 77 4
111 12 117 10 5 12 30 8 91 -3 46 -7 93 -9 103 -6 25 -36 36 -66 25 -33 -13
-40 -11 -18 6 37 28 18 95 -28 95 -16 0 -18 2 -7 9 12 8 11 15 -7 45 -17 29
-18 36 -7 36 8 0 15 -3 15 -8 0 -4 9 -13 21 -20 18 -12 18 -9 -5 25 -15 21
-22 39 -17 41 5 2 6 15 1 32 -10 35 -62 134 -73 138 -4 2 -5 8 -1 13 3 5 -2
12 -10 15 -9 3 -16 17 -16 30 0 13 -3 24 -8 24 -4 0 -18 21 -32 48 -32 62
-100 166 -111 170 -5 2 -9 7 -9 12 0 13 -91 165 -101 168 -5 2 -9 10 -9 18 0
8 -4 14 -10 14 -5 0 -10 6 -10 13 0 8 -11 27 -25 43 -14 16 -40 50 -58 76 -17
27 -35 48 -38 48 -4 0 -10 -11 -13 -25 -4 -14 -11 -25 -17 -25 -8 0 -8 4 0 14
19 22 10 72 -11 68 -10 -2 -28 3 -40 10 -13 7 -28 11 -33 10 -6 -1 -11 14 -11
32 l0 35 34 -40 c18 -21 38 -36 43 -33 5 3 -4 20 -22 37 -17 18 -38 42 -46 55
-9 12 -22 22 -30 22 -13 0 -13 -3 -3 -15 9 -10 9 -15 1 -15 -12 0 -14 11 -11
47 1 17 -4 21 -22 19 -13 -1 -29 -6 -36 -10 -17 -10 -15 2 3 20 8 8 12 20 9
27 -5 10 -102 96 -219 192 -18 15 -37 23 -47 19 -20 -6 -25 12 -5 19 7 2 0 10
-15 17 -16 7 -28 16 -28 20 0 6 -122 86 -170 110 -14 7 -27 16 -30 19 -21 25
-250 133 -271 128 -10 -3 -17 0 -16 5 2 12 -107 57 -140 57 -12 1 -23 4 -25 9
-3 7 -45 20 -208 67 -44 13 -197 37 -315 50 -142 16 -349 12 -515 -10z m205 5
c-16 -4 -51 -8 -77 -9 -27 0 -48 -4 -48 -8 0 -5 -15 -9 -33 -10 -31 -1 -31 -1
-7 9 30 12 112 25 160 26 l35 0 -30 -8z m178 3 c-13 -2 -33 -2 -45 0 -13 2 -3
4 22 4 25 0 35 -2 23 -4z m187 -24 c16 -8 -48 -2 -115 12 -28 5 -19 6 30 2 39
-3 77 -9 85 -14z m-187 4 c-13 -2 -33 -2 -45 0 -13 2 -3 4 22 4 25 0 35 -2 23
-4z m-418 -13 c-3 -5 -16 -10 -28 -10 -18 0 -19 2 -7 10 20 13 43 13 35 0z
m-205 -45 c-42 -16 -70 -18 -70 -6 0 10 33 17 80 19 21 0 20 -2 -10 -13z
m1117 3 c7 -1 10 -5 7 -9 -2 -4 -20 -3 -40 3 -38 10 -58 3 -34 -12 8 -6 11
-10 5 -10 -5 0 -17 5 -25 10 -13 9 -13 11 0 20 8 6 29 8 45 5 17 -3 35 -6 42
-7z m-992 -16 c-3 -7 -5 -18 -5 -23 0 -16 -30 -9 -37 9 -4 9 -10 19 -15 23 -4
3 8 5 27 5 26 0 34 -4 30 -14z m95 8 c0 -5 -5 -10 -11 -10 -5 0 -7 5 -4 10 3
6 8 10 11 10 2 0 4 -4 4 -10z m985 -19 c24 -6 26 -8 12 -14 -10 -4 -30 2 -50
14 -17 12 -23 18 -12 14 11 -4 34 -10 50 -14z m-1172 2 c-7 -2 -19 -2 -25 0
-7 3 -2 5 12 5 14 0 19 -2 13 -5z m-250 -43 c-4 -4 -24 -10 -43 -14 l-35 -5
38 12 c21 7 34 17 30 21 -4 5 -2 6 5 1 8 -4 10 -11 5 -15z m205 -17 l16 -25
17 21 18 21 6 -21 c9 -29 -25 -53 -40 -29 -4 6 -11 8 -16 5 -5 -4 -9 3 -9 14
0 26 -22 27 -100 6 -69 -19 -79 -19 -54 0 10 8 29 15 40 15 12 0 27 6 33 13
17 21 70 9 89 -20z m1031 21 c42 -9 39 -21 -6 -27 -40 -5 -60 4 -49 22 8 13
13 13 55 5z m-865 -54 c-3 -2 -9 2 -13 9 -6 9 -11 10 -15 2 -9 -14 -26 -14
-26 -1 0 6 7 10 15 10 8 0 15 5 15 12 0 6 6 3 14 -8 8 -10 12 -21 10 -24z
m995 26 c10 -12 8 -13 -8 -9 -12 3 -21 9 -21 14 0 14 16 11 29 -5z m226 4 c3
-5 1 -10 -4 -10 -6 0 -11 5 -11 10 0 6 2 10 4 10 3 0 8 -4 11 -10z m-1675 -4
c0 -2 -7 -7 -16 -10 -8 -3 -12 -2 -9 4 6 10 25 14 25 6z m1605 -16 c-11 -5
-27 -9 -35 -9 -13 -1 -13 0 0 9 8 5 24 9 35 9 l20 0 -20 -9z m112 4 c-3 -3
-12 -4 -19 -1 -8 3 -5 6 6 6 11 1 17 -2 13 -5z m-1769 -21 c-10 -2 -18 -9 -18
-14 0 -14 -27 -11 -33 4 -3 8 7 12 32 13 20 1 28 0 19 -3z m1913 -46 c-8 -8
-16 -7 -27 5 -14 14 -14 15 11 10 19 -3 23 -8 16 -15z m-1991 3 c13 -8 13 -10
-2 -10 -9 0 -20 5 -23 10 -8 13 5 13 25 0z m87 4 c-3 -3 -12 -4 -19 -1 -8 3
-5 6 6 6 11 1 17 -2 13 -5z m403 -4 c0 -5 -5 -10 -11 -10 -5 0 -7 5 -4 10 3 6
8 10 11 10 2 0 4 -4 4 -10z m-545 -10 c-3 -5 -14 -10 -23 -10 -15 0 -15 2 -2
10 20 13 33 13 25 0z m565 -10 c0 -5 -5 -10 -11 -10 -5 0 -7 5 -4 10 3 6 8 10
11 10 2 0 4 -4 4 -10z m1533 3 c-7 -2 -19 -2 -25 0 -7 3 -2 5 12 5 14 0 19 -2
13 -5z m-1776 -19 c-3 -3 -12 -4 -19 -1 -8 3 -5 6 6 6 11 1 17 -2 13 -5z
m1788 -4 c3 -5 -1 -10 -9 -10 -9 0 -16 5 -16 10 0 6 4 10 9 10 6 0 13 -4 16
-10z m-93 -42 c-14 -14 -92 1 -92 16 0 22 9 23 56 8 29 -9 42 -18 36 -24z
m-2094 13 c3 -8 -1 -12 -9 -9 -7 2 -15 10 -17 17 -3 8 1 12 9 9 7 -2 15 -10
17 -17z m550 -1 c-7 -11 -17 -20 -22 -20 -5 0 -1 9 9 20 10 11 20 20 22 20 2
0 -2 -9 -9 -20z m-358 0 c0 -5 -7 -10 -16 -10 -8 0 -12 5 -9 10 3 6 10 10 16
10 5 0 9 -4 9 -10z m-230 -10 c0 -5 -9 -14 -21 -20 -19 -11 -20 -10 -9 9 11
22 30 29 30 11z m120 -10 c0 -11 -4 -20 -10 -20 -5 0 -10 9 -10 20 0 11 5 20
10 20 6 0 10 -9 10 -20z m298 14 c12 -4 22 -14 22 -23 0 -13 -2 -13 -9 -3 -5
8 -24 18 -42 22 -19 4 -25 8 -14 9 11 0 30 -2 43 -5z m1891 -15 c-22 -13 -31
-11 -17 5 7 8 17 12 22 9 4 -3 2 -9 -5 -14z m-2355 -3 c-3 -9 -12 -12 -22 -9
-15 6 -9 11 25 22 1 1 0 -5 -3 -13z m246 -6 c0 -5 -9 -10 -20 -10 -11 0 -20 5
-20 10 0 6 9 10 20 10 11 0 20 -4 20 -10z m190 -24 c18 -7 28 -16 23 -19 -12
-8 -85 17 -76 26 9 10 16 9 53 -7z m90 4 c0 -5 -4 -10 -10 -10 -5 0 -10 5 -10
10 0 6 5 10 10 10 6 0 10 -4 10 -10z m1914 -15 c9 -14 21 -23 26 -20 6 4 19 0
31 -8 13 -9 16 -17 10 -22 -6 -3 -11 -1 -11 4 0 6 -7 11 -15 11 -18 0 -75 40
-75 52 0 16 18 7 34 -17z m-2084 -24 c-6 -21 -4 -35 7 -50 13 -20 12 -21 -11
-21 -24 0 -26 3 -26 50 0 43 3 50 19 50 17 0 18 -4 11 -29z m130 -36 c0 -35 0
-35 -42 -34 -35 1 -38 2 -18 8 14 4 26 13 26 21 1 8 2 21 3 28 0 6 8 12 16 12
10 0 15 -11 15 -35z m39 -2 c0 -25 -1 -25 -8 -8 -5 11 -7 23 -4 28 8 14 13 7
12 -20z m1938 11 c-3 -3 -12 -4 -19 -1 -8 3 -5 6 6 6 11 1 17 -2 13 -5z m133
-48 c0 -2 -7 -7 -16 -10 -8 -3 -12 -2 -9 4 6 10 25 14 25 6z m-160 -26 c0 -5
-8 -10 -17 -10 -15 0 -16 2 -3 10 19 12 20 12 20 0z m120 0 c0 -5 -5 -10 -11
-10 -5 0 -7 5 -4 10 3 6 8 10 11 10 2 0 4 -4 4 -10z m128 -77 c-17 -21 -24
-15 -35 33 l-11 45 28 -33 c20 -24 25 -36 18 -45z m-2468 63 c0 -2 -11 -13
-24 -25 l-24 -23 1 24 c2 16 8 23 24 24 13 1 23 1 23 0z m-530 -41 c0 -7 -43
-45 -52 -45 -4 0 -8 5 -8 10 0 6 5 10 11 10 6 0 17 7 25 15 16 15 24 19 24 10z
m450 -40 c0 -1 -12 -12 -26 -26 l-26 -24 6 25 c5 17 4 21 -2 11 -5 -7 -15 -10
-21 -7 -23 14 -10 25 29 23 22 -1 40 -2 40 -2z m2453 -13 c-10 -10 -20 -14
-22 -9 -2 5 3 13 10 18 24 15 30 10 12 -9z m29 -34 c-7 -7 -12 -8 -12 -2 0 14
12 26 19 19 2 -3 -1 -11 -7 -17z m173 1 c8 -12 -11 -20 -29 -13 -24 9 -20 33
4 27 11 -3 23 -9 25 -14z m45 -41 c0 -5 -10 -8 -22 -8 -16 0 -19 3 -11 11 6 6
9 19 6 28 -4 11 -1 10 10 -4 9 -11 17 -23 17 -27z m-266 -3 c-4 -8 -11 -15
-16 -15 -6 0 -5 6 2 15 7 8 14 15 16 15 2 0 1 -7 -2 -15z m76 -6 c0 -16 -42
-48 -63 -49 -13 0 -9 7 15 30 35 31 48 37 48 19z m-3129 -16 c8 -48 0 -69 -16
-43 -3 6 -1 10 4 10 6 0 11 5 11 11 0 6 -9 8 -22 3 -20 -6 -21 -5 -9 10 14 17
30 21 32 9z m3354 -3 c3 -5 -3 -10 -15 -10 -12 0 -18 5 -15 10 3 6 10 10 15
10 5 0 12 -4 15 -10z m-35 -20 c20 -20 15 -25 -14 -14 -9 3 -16 12 -16 20 0
19 6 18 30 -6z m-3480 -170 c0 -5 -4 -10 -10 -10 -5 0 -10 5 -10 10 0 6 5 10
10 10 6 0 10 -4 10 -10z m370 -49 c0 -5 -9 -13 -20 -16 -31 -10 -24 -27 9 -20
20 4 34 1 45 -10 29 -30 14 -75 -25 -75 -27 0 -34 21 -10 27 33 8 25 21 -15
25 -44 4 -64 37 -38 63 17 16 54 21 54 6z m-446 -16 c-7 -16 -24 -21 -24 -6 0
8 7 13 27 20 1 1 0 -6 -3 -14z m76 -9 c0 -3 -4 -8 -10 -11 -5 -3 -10 -1 -10 4
0 6 5 11 10 11 6 0 10 -2 10 -4z m3680 -6 c0 -5 -4 -10 -10 -10 -5 0 -10 5
-10 10 0 6 5 10 10 10 6 0 10 -4 10 -10z m80 0 c0 -5 -5 -10 -11 -10 -5 0 -7
5 -4 10 3 6 8 10 11 10 2 0 4 -4 4 -10z m-3800 -20 c0 -5 -6 -13 -14 -17 -7
-4 -16 -15 -19 -23 -3 -8 -6 0 -6 18 -1 26 3 32 19 32 11 0 20 -4 20 -10z
m-75 -39 c-9 -18 -13 -36 -10 -41 3 -5 -4 -14 -16 -21 -20 -10 -21 -9 -14 7 4
11 7 27 7 37 0 9 5 17 13 17 7 0 17 9 20 21 4 11 9 18 12 16 2 -3 -3 -19 -12
-36z m317 24 c0 -5 -5 -11 -11 -13 -6 -2 -11 4 -11 13 0 9 5 15 11 13 6 -2 11
-8 11 -13z m-132 -21 c0 -14 -21 -19 -33 -7 -9 9 13 34 24 27 5 -3 9 -12 9
-20z m238 9 c20 -17 26 -37 23 -75 -3 -44 -76 -65 -113 -31 -18 16 -24 68 -10
89 10 15 44 33 63 34 9 0 26 -8 37 -17z m3475 -6 c3 -8 1 -20 -4 -28 -6 -10
-9 -7 -9 14 0 29 5 35 13 14z m-3938 -37 c-3 -5 -12 -10 -18 -10 -7 0 -6 4 3
10 19 12 23 12 15 0z m72 4 c-3 -3 -12 -4 -19 -1 -8 3 -5 6 6 6 11 1 17 -2 13
-5z m149 -45 c3 -31 0 -38 -18 -42 -30 -8 -39 0 -28 28 5 14 7 32 3 41 -4 12
0 15 17 12 19 -2 24 -10 26 -39z m54 30 c0 -6 9 -9 20 -6 23 6 37 -10 22 -25
-15 -15 36 -68 65 -68 28 0 30 -15 4 -30 -26 -13 -41 -6 -75 35 -16 19 -35 35
-42 35 -8 0 -11 6 -8 14 3 8 1 17 -5 20 -12 7 -4 36 10 36 5 0 9 -5 9 -11z
m-291 -46 c7 -15 5 -18 -15 -19 -20 -2 -22 1 -13 17 12 23 16 24 28 2z m4092
-95 c7 -14 6 -18 -6 -18 -8 0 -15 6 -15 14 0 8 -11 28 -25 44 -14 17 -25 35
-25 42 0 13 54 -49 71 -82z m-3909 32 c-4 -36 -16 -50 -42 -50 -12 1 -11 3 3
11 9 5 17 18 17 27 0 15 -2 15 -10 2 -8 -13 -10 -13 -10 2 0 29 12 49 29 46
12 -3 15 -12 13 -38z m-75 -17 c-3 -10 -5 -4 -5 12 0 17 2 24 5 18 2 -7 2 -21
0 -30z m207 12 c22 -34 20 -58 -9 -89 -29 -31 -53 -33 -87 -6 -35 27 -39 52
-16 89 17 26 26 31 58 31 29 0 41 -6 54 -25z m-385 -26 c-7 -19 -18 -40 -25
-48 -11 -12 -12 -9 -3 23 9 34 30 68 37 62 1 -2 -3 -18 -9 -37z m4098 19 c-3
-8 -6 -5 -6 6 -1 11 2 17 5 13 3 -3 4 -12 1 -19z m-3941 -46 c-13 -13 -16 -13
-29 0 -13 13 -12 15 14 15 26 0 28 -2 15 -15z m4 -36 c10 11 24 14 45 11 33
-5 115 -55 115 -70 0 -11 -61 -1 -70 12 -7 11 -46 31 -60 31 -24 0 -20 -31 9
-62 17 -18 31 -38 31 -45 0 -29 -21 -19 -62 29 -23 29 -56 65 -71 82 -22 22
-25 31 -15 37 8 5 22 -1 39 -17 24 -23 27 -23 39 -8z m-89 -21 c28 -9 23 -18
-22 -37 -39 -17 -40 -16 -34 3 4 12 1 21 -9 25 -12 5 -13 9 -3 19 10 10 13 9
19 -6 4 -10 12 -19 17 -19 7 0 7 9 1 24 -5 13 -6 27 -2 31 4 4 8 -2 10 -14 2
-11 12 -23 23 -26z m4130 13 c11 -21 11 -22 -4 -9 -10 7 -17 17 -17 22 0 15 9
10 21 -13z m-4251 -8 c0 -5 -5 -10 -11 -10 -5 0 -7 5 -4 10 3 6 8 10 11 10 2
0 4 -4 4 -10z m4275 -51 c25 -23 45 -47 45 -53 0 -6 -4 -6 -9 2 -4 8 -11 13
-15 13 -19 -3 -24 1 -31 22 l-8 22 -4 -22 c-2 -13 -9 -23 -14 -23 -12 0 -11
27 2 35 7 5 4 14 -7 26 -31 34 -5 20 41 -22z m-4096 -14 c51 -26 55 -74 10
-116 -30 -28 -31 -31 -14 -43 11 -8 16 -20 12 -30 -9 -22 -24 -20 -38 7 -7 12
-27 39 -45 60 -19 20 -34 44 -34 53 0 27 33 73 54 77 12 2 22 5 24 6 2 0 16
-6 31 -14z m-199 -5 c0 -5 -2 -10 -4 -10 -3 0 -8 5 -11 10 -3 6 -1 10 4 10 6
0 11 -4 11 -10z m-29 -19 c-9 -6 -12 -19 -9 -36 5 -24 4 -25 -9 -12 -12 12
-13 19 -4 36 7 11 17 21 24 21 8 0 8 -3 -2 -9z m89 -16 c-7 -8 -19 -15 -27
-15 -13 0 -13 3 -3 15 7 8 19 15 27 15 13 0 13 -3 3 -15z m-70 -5 c0 -5 -5
-10 -11 -10 -5 0 -7 5 -4 10 3 6 8 10 11 10 2 0 4 -4 4 -10z m4340 -22 c0 -6
-6 -5 -15 2 -8 7 -15 14 -15 16 0 2 7 1 15 -2 8 -4 15 -11 15 -16z m-4315 -8
c3 -6 17 -7 31 -4 24 6 34 -9 14 -21 -6 -3 0 -20 13 -41 17 -26 27 -33 43 -29
30 7 38 -6 14 -22 -18 -13 -24 -13 -43 1 -52 36 -86 73 -93 99 -6 26 8 38 21
17z m-65 -41 c0 -5 -7 -9 -15 -9 -15 0 -20 12 -9 23 8 8 24 -1 24 -14z m4417
-16 c-3 -10 -5 -4 -5 12 0 17 2 24 5 18 2 -7 2 -21 0 -30z m-4269 6 c19 -30 8
-34 -12 -4 -9 14 -13 25 -9 25 5 0 14 -9 21 -21z m-195 -47 c-3 -12 -9 -19
-14 -16 -5 3 -3 14 3 24 15 24 19 21 11 -8z m111 -4 c48 -54 59 -75 45 -84
-13 -8 -99 82 -99 103 0 23 25 14 54 -19z m-54 -24 c0 -10 -6 -14 -15 -10 -9
3 -15 0 -15 -9 0 -9 10 -13 32 -12 25 2 35 -4 47 -24 13 -24 13 -28 -2 -44
-18 -18 -48 -17 -54 1 -2 6 6 14 18 17 34 9 12 26 -26 20 -30 -5 -35 -3 -41
21 -4 16 -1 32 6 41 17 20 50 19 50 -1z m114 0 c5 -14 4 -15 -9 -4 -17 14 -19
20 -6 20 5 0 12 -7 15 -16z m-184 -30 c0 -2 -7 -4 -15 -4 -8 0 -15 4 -15 10 0
5 7 7 15 4 8 -4 15 -8 15 -10z m4550 -53 c0 -19 -17 -38 -25 -29 -7 7 7 48 16
48 5 0 9 -9 9 -19z m14 -73 c-1 -18 -3 -36 -3 -40 -1 -5 -10 -8 -21 -8 -11 0
-20 -5 -20 -12 0 -6 -3 -9 -6 -5 -4 3 -3 14 1 24 5 10 9 21 9 25 2 11 30 48
37 48 4 0 5 -15 3 -32z m91 -309 c5 -7 3 -10 -6 -7 -8 3 -21 16 -29 30 -12 22
-12 30 0 55 l13 28 8 -47 c4 -26 10 -52 14 -59z m-2220 -639 c-3 -5 -12 -10
-18 -10 -7 0 -6 4 3 10 19 12 23 12 15 0z m585 -32 c0 -5 -4 -8 -10 -8 -5 0
-10 10 -10 23 0 18 2 19 10 7 5 -8 10 -18 10 -22z m26 6 c-4 -9 -9 -15 -11
-12 -3 3 -3 13 1 22 4 9 9 15 11 12 3 -3 3 -13 -1 -22z m1757 -38 c3 -8 7 -54
8 -101 2 -72 -1 -89 -14 -97 -16 -8 -57 5 -57 18 0 3 5 2 10 -1 6 -4 10 22 10
72 0 43 3 88 6 101 7 25 29 30 37 8z m-1893 -492 c0 -8 -5 -12 -10 -9 -6 4 -8
11 -5 16 9 14 15 11 15 -7z m-40 -150 c0 -8 -4 -12 -10 -9 -5 3 -10 10 -10 16
0 5 5 9 10 9 6 0 10 -7 10 -16z m-92 -326 c-3 -7 -13 -15 -23 -16 -15 -4 -16
-2 -4 12 17 19 32 21 27 4z m-54 -205 c-4 -21 -11 -47 -16 -58 -7 -17 -8 -16
-3 5 2 14 5 40 5 58 0 17 5 32 10 32 7 0 8 -14 4 -37z m-27 -115 c-3 -7 -5 -2
-5 12 0 14 2 19 5 13 2 -7 2 -19 0 -25z m-15 -40 c-7 -7 -12 -8 -12 -2 0 14
12 26 19 19 2 -3 -1 -11 -7 -17z m1668 -28 c0 -5 -8 -10 -17 -10 -15 0 -16 2
-3 10 19 12 20 12 20 0z m-230 -405 c0 -20 -5 -25 -26 -25 -25 0 -25 6 -1 38
15 19 27 14 27 -13z m-33 -237 c-2 -13 -4 -3 -4 22 0 25 2 35 4 23 2 -13 2
-33 0 -45z m20 10 c-3 -7 -5 -2 -5 12 0 14 2 19 5 13 2 -7 2 -19 0 -25z m-491
-352 c-9 -19 -16 -41 -16 -51 0 -9 -4 -14 -9 -10 -5 3 -12 1 -16 -5 -3 -5 1
-10 10 -10 12 0 15 -5 10 -17 -11 -29 -24 -112 -34 -208 l-9 -90 1 77 c1 42
-2 76 -7 75 -5 -1 -11 14 -13 35 -3 30 -1 37 16 43 22 7 31 55 11 55 -5 0 -10
9 -10 20 0 14 -5 18 -16 13 -11 -4 -15 -15 -12 -34 4 -24 0 -28 -26 -34 -28
-6 -29 -7 -11 -15 15 -5 21 -18 23 -45 3 -42 -21 -46 -26 -4 -8 57 -17 32 -14
-36 l4 -75 -41 0 c-37 0 -41 -2 -41 -25 0 -23 -3 -25 -50 -25 -36 0 -52 -4
-56 -15 -4 -11 -21 -15 -56 -15 -44 0 -49 2 -38 15 7 9 20 13 28 10 10 -3 12
0 8 10 -3 9 0 15 9 15 8 0 19 9 25 20 8 14 17 19 30 15 15 -5 17 -2 13 15 -4
16 -2 19 11 14 11 -4 19 3 28 22 15 33 125 148 151 157 9 4 17 13 17 22 0 8 5
15 11 15 6 0 20 11 31 25 11 14 26 25 34 25 8 0 13 4 9 10 -5 9 26 50 34 44 2
-2 -4 -19 -13 -38z m-66 -141 c0 -8 -4 -15 -10 -15 -5 0 -7 7 -4 15 4 8 8 15
10 15 2 0 4 -7 4 -15z m-1103 -242 c-3 -10 -5 -2 -5 17 0 19 2 27 5 18 2 -10
2 -26 0 -35z m-1470 0 c-3 -10 -5 -4 -5 12 0 17 2 24 5 18 2 -7 2 -21 0 -30z
m2536 -65 c-7 -115 -23 -132 -23 -23 0 43 4 75 10 75 6 0 10 12 10 27 0 14 2
24 4 22 2 -2 1 -48 -1 -101z m-2556 -10 c-2 -13 -4 -5 -4 17 -1 22 1 32 4 23
2 -10 2 -28 0 -40z m14 -118 l-10 -55 4 55 c3 30 6 82 7 115 l2 60 3 -60 c2
-33 -1 -85 -6 -115z m96 63 c-2 -21 -4 -4 -4 37 0 41 2 58 4 38 2 -21 2 -55 0
-75z m2033 97 c0 -5 -4 -10 -10 -10 -5 0 -10 5 -10 10 0 6 5 10 10 10 6 0 10
-4 10 -10z m-611 -156 c-2 -46 -6 -84 -10 -84 -8 0 -18 148 -11 167 2 7 8 10
14 7 5 -3 8 -44 7 -90z m577 43 c-1 -16 -8 -22 -24 -24 l-24 -1 23 24 c27 29
27 29 25 1z m476 -52 c3 -14 1 -25 -4 -25 -5 0 -6 -4 -3 -10 15 -25 13 -50 -4
-50 -10 0 -18 7 -18 15 0 8 4 15 8 15 4 0 5 18 2 40 -6 44 11 57 19 15z
m-1745 -42 c-3 -10 -5 -2 -5 17 0 19 2 27 5 18 2 -10 2 -26 0 -35z m940 15
c-3 -8 -6 -5 -6 6 -1 11 2 17 5 13 3 -3 4 -12 1 -19z m744 -65 c-9 -16 -10
-14 -11 12 0 21 3 26 11 18 8 -8 8 -16 0 -30z m-2433 -24 c2 -24 7 -48 13 -53
5 -6 9 -23 9 -40 0 -39 -11 -26 -28 32 -23 80 -26 115 -11 110 8 -3 15 -22 17
-49z m1742 25 c0 -2 -11 -4 -25 -4 -14 0 -25 4 -25 9 0 4 11 6 25 3 14 -2 25
-6 25 -8z m-1810 -19 c1 17 4 24 7 17 3 -7 2 -25 -2 -39 -5 -21 -8 -24 -16
-12 -5 7 -8 25 -8 39 1 23 2 23 9 -5 l8 -30 2 30z m1505 -15 c3 -5 1 -10 -4
-10 -6 0 -11 5 -11 10 0 6 2 10 4 10 3 0 8 -4 11 -10z m319 -6 c13 -33 6 -54
-19 -60 -36 -9 -42 2 -14 25 20 16 21 21 10 35 -11 14 -11 16 2 16 8 0 18 -7
21 -16z m-110 -26 c22 -31 20 -38 -9 -38 -21 0 -25 5 -25 30 0 36 13 38 34 8z
m833 0 c-3 -8 -6 -5 -6 6 -1 11 2 17 5 13 3 -3 4 -12 1 -19z m-992 2 c3 -5 17
-10 31 -10 13 0 24 -4 24 -9 0 -5 -17 -4 -40 1 -22 6 -40 14 -40 19 0 12 17
11 25 -1z m-585 -10 c0 -5 -7 -10 -15 -10 -8 0 -15 5 -15 10 0 6 7 10 15 10 8
0 15 -4 15 -10z m-47 -7 c-7 -2 -19 -2 -25 0 -7 3 -2 5 12 5 14 0 19 -2 13 -5z
m724 1 c-3 -3 -12 -4 -19 -1 -8 3 -5 6 6 6 11 1 17 -2 13 -5z m-1611 -48 c9
-28 8 -33 -4 -29 -13 5 -32 43 -32 63 0 22 26 -3 36 -34z m922 27 c-10 -2 -28
-2 -40 0 -13 2 -5 4 17 4 22 1 32 -1 23 -4z m667 -3 c4 -6 -6 -10 -22 -9 -25
0 -26 1 -8 9 11 5 21 9 22 9 1 1 5 -3 8 -9z m885 -68 c-10 -20 -19 -30 -20
-21 0 8 6 24 14 35 8 10 13 30 10 44 -4 25 -4 25 6 2 8 -18 5 -32 -10 -60z
m-867 42 c-22 -16 -33 -18 -33 -4 0 6 7 10 15 10 8 0 15 5 15 11 0 5 5 7 11 4
6 -5 4 -12 -8 -21z m254 -27 c4 -7 0 -8 -11 -4 -10 4 -22 7 -27 7 -5 0 -9 4
-9 9 0 12 38 2 47 -12z m33 -26 c0 -12 9 -21 25 -25 14 -4 25 -11 25 -16 0
-11 -50 14 -61 32 -12 18 -11 28 1 28 6 0 10 -9 10 -19z m-1873 -23 c-3 -7 -5
-2 -5 12 0 14 2 19 5 13 2 -7 2 -19 0 -25z m1546 20 c3 -8 -5 -14 -20 -14 -19
-2 -22 1 -12 12 14 17 25 18 32 2z m-653 -8 c0 -5 -16 -10 -35 -10 -19 0 -35
5 -35 10 0 6 16 10 35 10 19 0 35 -4 35 -10z m-840 -20 c0 -5 -4 -10 -9 -10
-6 0 -13 5 -16 10 -3 6 1 10 9 10 9 0 16 -4 16 -10z m140 0 c0 -5 -6 -10 -14
-10 -8 0 -18 5 -21 10 -3 6 3 10 14 10 12 0 21 -4 21 -10z m1239 -6 c-9 -11
-15 -11 -25 -3 -18 15 -18 14 11 15 21 2 24 -1 14 -12z m861 6 c0 -5 -4 -10
-10 -10 -5 0 -10 5 -10 10 0 6 5 10 10 10 6 0 10 -4 10 -10z m80 -34 c0 -7 -9
-16 -20 -19 -22 -6 -29 18 -7 26 21 9 27 7 27 -7z m-2210 -27 c0 -12 -37 -12
-44 0 -3 4 -3 11 0 14 8 7 44 -4 44 -14z m-62 -5 c14 -15 14 -16 -3 -13 -10 2
-20 10 -23 17 -5 17 6 15 26 -4z m2192 6 c0 -5 -5 -10 -11 -10 -5 0 -7 5 -4
10 3 6 8 10 11 10 2 0 4 -4 4 -10z m-405 -10 c-17 -6 -14 -8 15 -12 19 -3 -52
-6 -159 -6 -107 -1 -192 0 -190 2 3 3 56 6 119 7 63 1 135 5 160 9 61 10 79
10 55 0z m-532 -12 c-2 -5 -271 -7 -596 -6 -512 2 -548 3 -262 8 473 7 864 6
858 -2z m937 -4 c7 -8 -296 -3 -308 5 -6 4 59 5 146 3 86 -2 159 -6 162 -8z
m-792 -1 c-21 -2 -55 -2 -75 0 -21 2 -4 4 37 4 41 0 58 -2 38 -4z"/>
<path d="M3588 8253 c-34 -39 19 -90 55 -54 19 19 19 21 3 45 -19 30 -37 33
-58 9z m42 -22 c0 -21 -26 -36 -36 -20 -9 15 3 39 21 39 8 0 15 -9 15 -19z"/>
<path d="M3401 8096 c-12 -14 -5 -46 13 -58 36 -25 84 24 56 57 -16 19 -54 20
-69 1z m59 -20 c0 -18 -30 -30 -43 -17 -5 5 -6 14 -3 20 10 16 46 13 46 -3z"/>
<path d="M3182 7918 c-25 -25 -10 -78 22 -78 45 0 65 59 27 80 -25 13 -34 13
-49 -2z m46 -50 c-2 -6 -12 -12 -21 -14 -20 -3 -24 42 -4 49 14 5 30 -18 25
-35z"/>
<path d="M6353 4027 c-49 -18 -50 -27 -5 -27 35 0 42 3 42 20 0 11 -1 20 -2
19 -2 0 -17 -6 -35 -12z"/>
<path d="M1390 9316 c0 -2 7 -6 15 -10 8 -3 15 -1 15 4 0 6 -7 10 -15 10 -8 0
-15 -2 -15 -4z"/>
<path d="M7430 9309 c0 -5 5 -7 10 -4 6 3 10 8 10 11 0 2 -4 4 -10 4 -5 0 -10
-5 -10 -11z"/>
<path d="M2350 9280 c-9 -6 -10 -10 -3 -10 6 0 15 5 18 10 8 12 4 12 -15 0z"/>
<path d="M2316 9245 c-9 -26 -7 -32 5 -12 6 10 9 21 6 23 -2 3 -7 -2 -11 -11z"/>
<path d="M7300 9189 c0 -5 5 -7 10 -4 6 3 10 8 10 11 0 2 -4 4 -10 4 -5 0 -10
-5 -10 -11z"/>
<path d="M9755 9120 c-3 -5 -1 -10 4 -10 6 0 11 5 11 10 0 6 -2 10 -4 10 -3 0
-8 -4 -11 -10z"/>
<path d="M1807 8910 c-3 -14 -2 -26 3 -28 6 -2 10 -12 10 -23 0 -13 7 -19 22
-19 20 0 21 1 4 13 -10 7 -21 29 -25 47 -7 33 -7 34 -14 10z"/>
<path d="M1912 8855 c-11 -13 -8 -15 18 -15 20 0 30 5 30 15 0 19 -31 19 -48
0z"/>
<path d="M6852 8858 c2 -6 15 -13 28 -15 24 -3 24 -3 5 11 -24 18 -38 20 -33
4z"/>
<path d="M6952 8855 c-11 -13 -8 -15 18 -15 20 0 30 5 30 15 0 19 -31 19 -48
0z"/>
<path d="M4800 8820 c0 -19 7 -20 120 -20 113 0 120 1 120 20 0 19 -7 20 -120
20 -113 0 -120 -1 -120 -20z"/>
<path d="M5360 8820 c0 -16 7 -20 35 -20 28 0 35 4 35 20 0 16 -7 20 -35 20
-28 0 -35 -4 -35 -20z"/>
<path d="M5685 8792 c-14 -14 -1 -22 35 -22 22 0 40 5 40 10 0 6 -3 10 -7 11
-36 5 -64 5 -68 1z"/>
<path d="M4480 8773 c0 -17 23 -42 44 -47 13 -3 38 -18 54 -33 55 -51 112 -98
124 -102 7 -2 26 -17 43 -33 16 -15 34 -28 38 -28 4 0 20 -11 35 -25 15 -14
32 -25 39 -25 7 0 25 -13 40 -28 16 -16 48 -42 73 -60 25 -17 57 -42 72 -56
15 -14 30 -26 33 -26 5 0 93 -65 174 -128 51 -41 61 -40 19 1 -20 21 -39 37
-42 37 -4 0 -12 4 -19 10 -7 5 -36 30 -66 55 -30 25 -61 45 -68 45 -7 0 -13 5
-13 11 0 11 -42 49 -65 59 -14 6 -88 66 -121 98 -13 12 -26 22 -29 22 -18 0
-128 97 -122 108 3 4 0 16 -4 27 -9 18 -9 18 -5 -2 2 -13 1 -23 -4 -23 -8 0
-59 38 -75 56 -5 6 -19 16 -30 22 -19 11 -18 11 8 12 21 0 27 5 27 21 0 18 -5
20 -42 18 -24 -1 -50 1 -58 4 -26 9 -60 15 -60 10z"/>
<path d="M4222 8734 c-7 -8 -8 -14 -3 -14 10 0 25 19 20 25 -2 1 -10 -3 -17
-11z"/>
<path d="M9158 8663 c7 -3 16 -2 19 1 4 3 -2 6 -13 5 -11 0 -14 -3 -6 -6z"/>
<path d="M4062 8574 c-7 -8 -8 -14 -3 -14 10 0 25 19 20 25 -2 1 -10 -3 -17
-11z"/>
<path d="M6890 8580 c0 -5 5 -10 10 -10 6 0 10 5 10 10 0 6 -4 10 -10 10 -5 0
-10 -4 -10 -10z"/>
<path d="M6409 8544 c-12 -14 -11 -16 5 -13 11 2 21 10 24 17 5 17 -13 15 -29
-4z"/>
<path d="M6178 8533 c12 -2 30 -2 40 0 9 3 -1 5 -23 4 -22 0 -30 -2 -17 -4z"/>
<path d="M3830 8510 c0 -18 3 -19 20 -10 22 12 18 30 -6 30 -8 0 -14 -9 -14
-20z"/>
<path d="M3976 8499 c-18 -17 -18 -19 -2 -19 9 0 19 7 23 15 8 23 0 25 -21 4z"/>
<path d="M3767 8473 c-11 -11 -8 -95 3 -88 6 3 8 16 5 28 -7 30 4 43 45 55
l35 10 -41 1 c-22 1 -44 -2 -47 -6z"/>
<path d="M9938 8453 c7 -3 16 -2 19 1 4 3 -2 6 -13 5 -11 0 -14 -3 -6 -6z"/>
<path d="M3694 8417 c-4 -7 -4 -9 1 -5 4 4 16 3 27 -3 11 -6 22 -9 24 -6 2 2
-7 9 -21 15 -18 9 -26 8 -31 -1z"/>
<path d="M7485 8400 c3 -5 8 -10 11 -10 2 0 4 5 4 10 0 6 -5 10 -11 10 -5 0
-7 -4 -4 -10z"/>
<path d="M3625 8390 c3 -5 8 -10 11 -10 2 0 4 5 4 10 0 6 -5 10 -11 10 -5 0
-7 -4 -4 -10z"/>
<path d="M6260 8369 c0 -5 5 -7 10 -4 6 3 10 8 10 11 0 2 -4 4 -10 4 -5 0 -10
-5 -10 -11z"/>
<path d="M6360 8355 c-25 -27 -25 -41 0 -22 23 19 43 47 33 47 -5 0 -20 -11
-33 -25z"/>
<path d="M8692 8340 c0 -19 2 -27 5 -17 2 9 2 25 0 35 -3 9 -5 1 -5 -18z"/>
<path d="M3796 8315 c4 -8 7 -15 9 -15 2 0 5 7 9 15 3 9 0 15 -9 15 -9 0 -12
-6 -9 -15z"/>
<path d="M8717 8279 c7 -7 15 -10 18 -7 3 3 -2 9 -12 12 -14 6 -15 5 -6 -5z"/>
<path d="M8765 8280 c-3 -5 -1 -10 4 -10 6 0 11 5 11 10 0 6 -2 10 -4 10 -3 0
-8 -4 -11 -10z"/>
<path d="M8741 8234 c0 -11 3 -14 6 -6 3 7 2 16 -1 19 -3 4 -6 -2 -5 -13z"/>
<path d="M1098 8203 c7 -3 16 -2 19 1 4 3 -2 6 -13 5 -11 0 -14 -3 -6 -6z"/>
<path d="M5345 8110 c3 -5 8 -10 11 -10 2 0 4 5 4 10 0 6 -5 10 -11 10 -5 0
-7 -4 -4 -10z"/>
<path d="M365 8050 c3 -5 8 -10 11 -10 2 0 4 5 4 10 0 6 -5 10 -11 10 -5 0 -7
-4 -4 -10z"/>
<path d="M5425 8050 c3 -5 8 -10 11 -10 2 0 4 5 4 10 0 6 -5 10 -11 10 -5 0
-7 -4 -4 -10z"/>
<path d="M891 8004 c0 -11 3 -14 6 -6 3 7 2 16 -1 19 -3 4 -6 -2 -5 -13z"/>
<path d="M8430 8009 c15 -14 61 -39 56 -31 -3 6 2 13 11 15 12 3 8 5 -9 6 -14
0 -35 4 -45 8 -10 3 -16 4 -13 2z"/>
<path d="M5887 7963 c-4 -3 -7 -11 -7 -17 0 -6 5 -5 12 2 6 6 9 14 7 17 -3 3
-9 2 -12 -2z"/>
<path d="M3368 7923 c7 -3 16 -2 19 1 4 3 -2 6 -13 5 -11 0 -14 -3 -6 -6z"/>
<path d="M8248 7913 c7 -3 16 -2 19 1 4 3 -2 6 -13 5 -11 0 -14 -3 -6 -6z"/>
<path d="M8238 7843 c6 -2 18 -2 25 0 6 3 1 5 -13 5 -14 0 -19 -2 -12 -5z"/>
<path d="M8200 7808 c0 -10 40 -51 45 -46 3 2 -6 15 -20 28 -14 13 -25 21 -25
18z"/>
<path d="M5751 7774 c0 -11 3 -14 6 -6 3 7 2 16 -1 19 -3 4 -6 -2 -5 -13z"/>
<path d="M8020 7720 c0 -5 4 -10 9 -10 6 0 13 5 16 10 3 6 -1 10 -9 10 -9 0
-16 -4 -16 -10z"/>
<path d="M3135 7700 c-3 -5 1 -10 10 -10 9 0 13 5 10 10 -3 6 -8 10 -10 10 -2
0 -7 -4 -10 -10z"/>
<path d="M3193 7703 c-17 -6 -16 -20 0 -26 8 -3 14 3 14 14 1 10 1 19 0 18 -1
0 -8 -3 -14 -6z"/>
<path d="M3250 7700 c0 -5 7 -10 16 -10 8 0 12 5 9 10 -3 6 -10 10 -16 10 -5
0 -9 -4 -9 -10z"/>
<path d="M7976 7691 c-3 -5 1 -12 10 -15 22 -8 25 -4 9 11 -8 7 -16 9 -19 4z"/>
<path d="M3260 7671 c0 -10 70 -71 81 -71 4 0 21 -13 39 -30 18 -16 38 -30 46
-30 8 0 14 -4 14 -8 0 -5 21 -24 48 -42 26 -19 49 -37 52 -41 3 -3 15 -9 27
-13 11 -4 28 -18 37 -31 9 -14 24 -25 33 -25 12 0 8 8 -13 28 -27 26 -102 82
-143 107 -8 6 -23 17 -31 25 -8 9 -31 27 -50 40 -19 14 -48 37 -64 52 -16 16
-35 28 -42 28 -8 0 -14 5 -14 10 0 6 -4 10 -10 10 -5 0 -10 -4 -10 -9z"/>
<path d="M7360 7601 c0 -47 4 -81 10 -81 6 0 10 31 10 74 0 41 -4 78 -10 81
-6 4 -10 -23 -10 -74z"/>
<path d="M8040 7670 c0 -5 4 -10 9 -10 6 0 13 5 16 10 3 6 -1 10 -9 10 -9 0
-16 -4 -16 -10z"/>
<path d="M2870 7640 c-14 -27 -4 -57 21 -65 43 -14 70 53 30 75 -28 15 -39 13
-51 -10z m40 -15 c11 -13 11 -18 0 -28 -10 -9 -14 -9 -17 1 -3 6 -8 10 -13 7
-4 -3 -6 4 -3 15 6 24 16 25 33 5z"/>
<path d="M3100 7640 c0 -5 5 -10 10 -10 6 0 10 5 10 10 0 6 -4 10 -10 10 -5 0
-10 -4 -10 -10z"/>
<path d="M8025 7630 c-4 -12 -5 -24 -2 -27 3 -2 8 5 12 17 4 12 5 24 2 27 -3
2 -8 -5 -12 -17z"/>
<path d="M7990 7550 c-9 -6 -10 -10 -3 -10 6 0 15 5 18 10 8 12 4 12 -15 0z"/>
<path d="M2823 7515 c-3 -9 -3 -18 -1 -21 3 -3 8 4 11 16 6 23 -1 27 -10 5z"/>
<path d="M7750 7490 c0 -11 4 -20 9 -20 5 0 7 9 4 20 -3 11 -7 20 -9 20 -2 0
-4 -9 -4 -20z"/>
<path d="M7805 7490 c3 -5 8 -10 11 -10 2 0 4 5 4 10 0 6 -5 10 -11 10 -5 0
-7 -4 -4 -10z"/>
<path d="M2736 7452 c-3 -6 -1 -14 5 -17 14 -9 20 -2 10 14 -6 8 -11 9 -15 3z"/>
<path d="M7413 7315 c0 -22 2 -30 4 -17 2 12 2 30 0 40 -3 9 -5 -1 -4 -23z"/>
<path d="M3700 7332 c0 -4 9 -13 20 -20 11 -7 20 -9 20 -4 0 4 -9 13 -20 20
-11 7 -20 9 -20 4z"/>
<path d="M7480 7236 c0 -13 -104 -119 -355 -365 -25 -24 -45 -49 -45 -55 0 -6
16 6 34 27 19 20 37 37 40 37 6 0 62 51 164 148 30 28 57 52 59 52 3 0 23 18
46 40 69 66 73 70 85 70 6 0 13 -10 15 -22 3 -16 5 -13 6 10 0 18 -3 31 -8 27
-5 -3 -11 5 -13 17 -3 25 -28 37 -28 14z"/>
<path d="M7553 7120 c1 -48 6 -79 12 -76 6 2 9 12 7 22 -1 10 -3 45 -3 77 -1
31 -5 57 -10 57 -5 0 -7 -36 -6 -80z"/>
<path d="M2762 7140 c0 -14 2 -19 5 -12 2 6 2 18 0 25 -3 6 -5 1 -5 -13z"/>
<path d="M7490 7135 c0 -8 2 -15 4 -15 2 0 6 7 10 15 3 8 1 15 -4 15 -6 0 -10
-7 -10 -15z"/>
<path d="M2760 7094 c0 -8 5 -12 10 -9 6 4 8 11 5 16 -9 14 -15 11 -15 -7z"/>
<path d="M2790 7071 c0 -6 5 -13 10 -16 6 -3 10 1 10 9 0 9 -4 16 -10 16 -5 0
-10 -4 -10 -9z"/>
<path d="M2761 6975 c1 -66 4 -81 9 -55 7 34 7 34 9 -12 0 -27 -3 -48 -9 -48
-5 0 -10 -10 -9 -22 l0 -23 9 23 c5 12 13 22 17 22 14 0 2 174 -13 190 -12 12
-14 2 -13 -75z m16 3 c-2 -13 -4 -3 -4 22 0 25 2 35 4 23 2 -13 2 -33 0 -45z"/>
<path d="M7735 6985 c-4 -36 -4 -85 -1 -110 7 -41 10 -45 34 -45 21 0 28 5 28
20 0 11 -3 20 -6 20 -3 0 -4 18 -2 40 3 27 -2 49 -13 66 -9 15 -15 37 -12 50
3 15 0 24 -9 24 -8 0 -15 -22 -19 -65z"/>
<path d="M7562 6900 c0 -14 2 -19 5 -12 2 6 2 18 0 25 -3 6 -5 1 -5 -13z"/>
<path d="M2771 6764 c1 -21 5 -50 9 -64 5 -16 6 -2 3 35 -7 69 -13 86 -12 29z"/>
<path d="M7013 6760 c0 -25 2 -35 4 -22 2 12 2 32 0 45 -2 12 -4 2 -4 -23z"/>
<path d="M9406 6793 c-4 -4 -15 -8 -24 -8 -13 0 -18 -12 -20 -52 -3 -51 -3
-53 22 -53 14 0 26 5 26 10 0 6 -5 10 -11 10 -6 0 -9 16 -7 38 l3 37 50 -1
c44 -2 47 -1 30 12 -20 15 -57 19 -69 7z"/>
<path d="M9503 6741 c-3 -13 -11 -18 -21 -14 -14 4 -14 3 -3 -5 7 -5 10 -15 7
-21 -5 -7 1 -11 13 -11 17 0 21 6 21 35 0 38 -9 46 -17 16z"/>
<path d="M6961 6734 c0 -11 3 -14 6 -6 3 7 2 16 -1 19 -3 4 -6 -2 -5 -13z"/>
<path d="M6920 6730 c0 -5 7 -10 16 -10 8 0 12 5 9 10 -3 6 -10 10 -16 10 -5
0 -9 -4 -9 -10z"/>
<path d="M5653 6713 c-13 -2 -23 -9 -23 -14 0 -14 26 -11 40 6 7 8 11 14 9 14
-2 -1 -14 -4 -26 -6z"/>
<path d="M2820 6691 c0 -11 5 -23 10 -26 6 -3 10 -2 10 4 0 5 3 16 6 25 4 11
1 16 -10 16 -9 0 -16 -8 -16 -19z"/>
<path d="M7552 6660 c0 -14 2 -19 5 -12 2 6 2 18 0 25 -3 6 -5 1 -5 -13z"/>
<path d="M1715 6640 c-3 -6 1 -7 9 -4 18 7 21 14 7 14 -6 0 -13 -4 -16 -10z"/>
<path d="M2781 6624 c0 -11 3 -14 6 -6 3 7 2 16 -1 19 -3 4 -6 -2 -5 -13z"/>
<path d="M1680 6609 c0 -5 5 -7 10 -4 6 3 10 8 10 11 0 2 -4 4 -10 4 -5 0 -10
-5 -10 -11z"/>
<path d="M4500 6610 c0 -5 5 -10 11 -10 5 0 7 5 4 10 -3 6 -8 10 -11 10 -2 0
-4 -4 -4 -10z"/>
<path d="M7027 6613 c-3 -3 1 -12 9 -20 8 -9 18 -13 21 -10 3 3 -1 13 -10 21
-8 8 -17 12 -20 9z"/>
<path d="M7538 6600 c-4 -14 -8 -36 -8 -50 1 -22 2 -23 11 -7 6 9 9 32 7 50
-3 31 -3 31 -10 7z"/>
<path d="M2793 6560 c0 -25 2 -35 4 -22 2 12 2 32 0 45 -2 12 -4 2 -4 -23z"/>
<path d="M7522 6480 c0 -19 2 -27 5 -17 2 9 2 25 0 35 -3 9 -5 1 -5 -18z"/>
<path d="M2804 6475 c4 -16 12 -60 19 -97 12 -63 22 -87 31 -77 5 6 -41 189
-50 198 -4 3 -4 -7 0 -24z"/>
<path d="M9115 6479 c-4 -6 -5 -12 -2 -15 2 -3 7 2 10 11 7 17 1 20 -8 4z"/>
<path d="M2871 6354 c0 -11 3 -14 6 -6 3 7 2 16 -1 19 -3 4 -6 -2 -5 -13z"/>
<path d="M2857 6245 c-4 -8 -2 -17 3 -20 6 -4 10 3 10 14 0 25 -6 27 -13 6z"/>
<path d="M2872 6180 c0 -14 2 -19 5 -12 2 6 2 18 0 25 -3 6 -5 1 -5 -13z"/>
<path d="M1190 6180 c-13 -8 -12 -10 3 -10 9 0 17 5 17 10 0 12 -1 12 -20 0z"/>
<path d="M2557 6159 c7 -7 15 -10 18 -7 3 3 -2 9 -12 12 -14 6 -15 5 -6 -5z"/>
<path d="M2931 6124 c0 -11 3 -14 6 -6 3 7 2 16 -1 19 -3 4 -6 -2 -5 -13z"/>
<path d="M7747 6133 c-2 -5 -1 -19 4 -33 7 -23 7 -23 8 8 1 31 -3 40 -12 25z"/>
<path d="M2900 6089 c0 -11 4 -18 10 -14 5 3 7 12 3 20 -7 21 -13 19 -13 -6z"/>
<path d="M2931 6064 c0 -11 3 -14 6 -6 3 7 2 16 -1 19 -3 4 -6 -2 -5 -13z"/>
<path d="M7410 6070 c0 -5 5 -10 10 -10 6 0 10 5 10 10 0 6 -4 10 -10 10 -5 0
-10 -4 -10 -10z"/>
<path d="M7746 6062 c-9 -15 10 -42 30 -42 8 0 14 -4 14 -10 0 -5 6 -10 13
-10 7 0 19 -9 27 -19 7 -11 17 -18 22 -15 10 6 -5 21 -54 54 -21 14 -39 32
-40 40 -3 12 -5 12 -12 2z"/>
<path d="M921 6044 c0 -11 3 -14 6 -6 3 7 2 16 -1 19 -3 4 -6 -2 -5 -13z"/>
<path d="M2939 6018 c0 -22 -1 -22 -9 -3 -5 11 -9 15 -9 9 -1 -7 5 -24 13 -38
l14 -27 0 41 c0 22 -1 40 -4 40 -2 0 -4 -10 -5 -22z"/>
<path d="M1036 5987 c3 -10 9 -15 12 -12 3 3 0 11 -7 18 -10 9 -11 8 -5 -6z"/>
<path d="M7751 5984 c0 -11 3 -14 6 -6 3 7 2 16 -1 19 -3 4 -6 -2 -5 -13z"/>
<path d="M3480 5925 c-8 -9 -8 -15 -2 -15 12 0 26 19 19 26 -2 2 -10 -2 -17
-11z"/>
<path d="M2976 5885 c4 -8 8 -15 10 -15 2 0 4 7 4 15 0 8 -4 15 -10 15 -5 0
-7 -7 -4 -15z"/>
<path d="M3410 5864 c-19 -19 -30 -34 -24 -34 12 0 41 24 63 53 22 28 -2 17
-39 -19z"/>
<path d="M857 5869 c7 -7 15 -10 18 -7 3 3 -2 9 -12 12 -14 6 -15 5 -6 -5z"/>
<path d="M2990 5834 c0 -16 22 -44 32 -38 6 4 8 -1 4 -14 -4 -11 -2 -23 3 -27
7 -3 8 0 5 9 -5 12 0 16 17 16 23 0 22 2 -11 30 -33 29 -50 37 -50 24z"/>
<path d="M3356 5804 c-5 -14 -4 -15 9 -4 17 14 19 20 6 20 -5 0 -12 -7 -15
-16z"/>
<path d="M3311 5771 c-8 -6 -9 -11 -3 -15 6 -3 14 -1 17 5 9 14 2 20 -14 10z"/>
<path d="M7295 5759 c-4 -6 -5 -12 -2 -15 2 -3 7 2 10 11 7 17 1 20 -8 4z"/>
<path d="M3113 5750 c2 -8 12 -16 23 -17 13 -2 15 -1 4 4 -8 3 -19 11 -23 17
-6 7 -7 6 -4 -4z"/>
<path d="M780 5729 c0 -5 5 -7 10 -4 6 3 10 8 10 11 0 2 -4 4 -10 4 -5 0 -10
-5 -10 -11z"/>
<path d="M3040 5727 c0 -8 7 -20 15 -27 12 -10 15 -10 15 3 0 8 -7 20 -15 27
-12 10 -15 10 -15 -3z"/>
<path d="M3168 5723 c6 -2 18 -2 25 0 6 3 1 5 -13 5 -14 0 -19 -2 -12 -5z"/>
<path d="M3119 5698 c-3 -11 -3 -65 0 -62 2 2 9 0 15 -6 7 -5 18 -5 25 -1 20
13 4 51 -22 52 -21 0 -21 1 -2 9 17 7 17 9 3 9 -10 1 -18 0 -19 -1z"/>
<path d="M3222 5643 l-2 -43 -60 0 -60 0 12 -25 c6 -14 16 -25 22 -25 6 0 5 5
-2 12 -22 22 -12 30 33 27 55 -4 67 7 62 57 l-4 39 -1 -42z"/>
<path d="M475 5650 c3 -5 8 -10 11 -10 2 0 4 5 4 10 0 6 -5 10 -11 10 -5 0 -7
-4 -4 -10z"/>
<path d="M475 5570 c-19 -8 -19 -9 2 -9 12 -1 25 4 28 9 7 12 -2 12 -30 0z"/>
<path d="M3240 5533 c1 -5 30 -28 65 -53 36 -25 84 -62 107 -82 44 -38 75 -54
85 -44 3 3 -6 10 -21 15 -14 6 -26 15 -26 21 0 5 -6 10 -14 10 -8 0 -16 6 -19
14 -3 8 -17 20 -30 28 -14 7 -48 32 -77 56 -50 40 -70 51 -70 35z"/>
<path d="M2915 5520 c-3 -6 1 -7 9 -4 18 7 21 14 7 14 -6 0 -13 -4 -16 -10z"/>
<path d="M3160 5490 c0 -5 5 -10 11 -10 5 0 7 5 4 10 -3 6 -8 10 -11 10 -2 0
-4 -4 -4 -10z"/>
<path d="M8338 5493 c7 -3 16 -2 19 1 4 3 -2 6 -13 5 -11 0 -14 -3 -6 -6z"/>
<path d="M7930 5480 c-13 -8 -12 -10 3 -10 9 0 17 5 17 10 0 12 -1 12 -20 0z"/>
<path d="M891 5404 c0 -11 3 -14 6 -6 3 7 2 16 -1 19 -3 4 -6 -2 -5 -13z"/>
<path d="M355 5380 c3 -5 8 -10 11 -10 2 0 4 5 4 10 0 6 -5 10 -11 10 -5 0 -7
-4 -4 -10z"/>
<path d="M3255 5330 c3 -5 8 -10 11 -10 2 0 4 5 4 10 0 6 -5 10 -11 10 -5 0
-7 -4 -4 -10z"/>
<path d="M3521 5317 c76 -64 91 -74 83 -53 -3 9 -9 16 -13 16 -4 0 -23 14 -41
30 -18 17 -38 30 -44 30 -6 0 1 -11 15 -23z"/>
<path d="M330 5309 c0 -5 5 -7 10 -4 6 3 10 8 10 11 0 2 -4 4 -10 4 -5 0 -10
-5 -10 -11z"/>
<path d="M7715 5279 c-4 -6 -5 -12 -2 -15 2 -3 7 2 10 11 7 17 1 20 -8 4z"/>
<path d="M255 5250 c3 -5 8 -10 11 -10 2 0 4 5 4 10 0 6 -5 10 -11 10 -5 0 -7
-4 -4 -10z"/>
<path d="M3677 5199 c7 -7 15 -10 18 -7 3 3 -2 9 -12 12 -14 6 -15 5 -6 -5z"/>
<path d="M7441 5184 c0 -11 3 -14 6 -6 3 7 2 16 -1 19 -3 4 -6 -2 -5 -13z"/>
<path d="M3715 5170 c3 -5 8 -10 11 -10 2 0 4 5 4 10 0 6 -5 10 -11 10 -5 0
-7 -4 -4 -10z"/>
<path d="M10022 5160 c0 -14 2 -19 5 -12 2 6 2 18 0 25 -3 6 -5 1 -5 -13z"/>
<path d="M3750 5154 c0 -13 18 -39 24 -34 2 3 -2 14 -10 24 -8 11 -14 16 -14
10z"/>
<path d="M6345 5090 c3 -5 8 -10 11 -10 2 0 4 5 4 10 0 6 -5 10 -11 10 -5 0
-7 -4 -4 -10z"/>
<path d="M2445 5070 c-3 -5 -1 -10 4 -10 6 0 11 5 11 10 0 6 -2 10 -4 10 -3 0
-8 -4 -11 -10z"/>
<path d="M7445 5030 c-21 -23 -4 -27 19 -4 18 17 20 24 8 24 -5 0 -17 -9 -27
-20z"/>
<path d="M7288 5023 c7 -3 16 -2 19 1 4 3 -2 6 -13 5 -11 0 -14 -3 -6 -6z"/>
<path d="M3950 4990 c0 -5 5 -10 11 -10 5 0 7 5 4 10 -3 6 -8 10 -11 10 -2 0
-4 -4 -4 -10z"/>
<path d="M9920 4989 c0 -5 5 -7 10 -4 6 3 10 8 10 11 0 2 -4 4 -10 4 -5 0 -10
-5 -10 -11z"/>
<path d="M3980 4966 c0 -2 7 -7 16 -10 8 -3 12 -2 9 4 -6 10 -25 14 -25 6z"/>
<path d="M6505 4960 c3 -5 13 -10 21 -10 8 0 12 5 9 10 -3 6 -13 10 -21 10 -8
0 -12 -4 -9 -10z"/>
<path d="M9020 4966 c0 -2 7 -7 16 -10 8 -3 12 -2 9 4 -6 10 -25 14 -25 6z"/>
<path d="M3485 4950 c3 -5 8 -10 11 -10 2 0 4 5 4 10 0 6 -5 10 -11 10 -5 0
-7 -4 -4 -10z"/>
<path d="M4025 4930 c3 -5 8 -10 11 -10 2 0 4 5 4 10 0 6 -5 10 -11 10 -5 0
-7 -4 -4 -10z"/>
<path d="M4050 4910 c0 -5 5 -10 11 -10 5 0 7 5 4 10 -3 6 -8 10 -11 10 -2 0
-4 -4 -4 -10z"/>
<path d="M4155 4830 c3 -5 8 -10 11 -10 2 0 4 5 4 10 0 6 -5 10 -11 10 -5 0
-7 -4 -4 -10z"/>
<path d="M4195 4800 c3 -5 11 -10 16 -10 6 0 7 5 4 10 -3 6 -11 10 -16 10 -6
0 -7 -4 -4 -10z"/>
<path d="M1680 4790 c0 -5 5 -10 11 -10 5 0 7 5 4 10 -3 6 -8 10 -11 10 -2 0
-4 -4 -4 -10z"/>
<path d="M4230 4770 c0 -5 5 -10 10 -10 6 0 10 5 10 10 0 6 -4 10 -10 10 -5 0
-10 -4 -10 -10z"/>
<path d="M4260 4750 c0 -5 5 -10 10 -10 6 0 10 5 10 10 0 6 -4 10 -10 10 -5 0
-10 -4 -10 -10z"/>
<path d="M3623 4696 c7 -14 13 -23 15 -21 7 6 -9 45 -18 45 -4 0 -3 -11 3 -24z"/>
<path d="M2031 4674 c0 -11 3 -14 6 -6 3 7 2 16 -1 19 -3 4 -6 -2 -5 -13z"/>
<path d="M3666 4667 c3 -10 9 -15 12 -12 3 3 0 11 -7 18 -10 9 -11 8 -5 -6z"/>
<path d="M1845 4640 c-4 -7 2 -9 19 -4 16 4 32 1 41 -6 9 -7 19 -10 22 -6 4 4
1 11 -7 16 -20 13 -67 12 -75 0z"/>
<path d="M4314 4636 c-3 -7 -4 -35 -2 -62 l3 -49 85 -1 85 0 -82 3 -83 4 0 54
c0 33 5 55 13 58 9 4 9 6 -1 6 -7 1 -15 -5 -18 -13z"/>
<path d="M1823 4600 c0 -25 2 -35 4 -22 2 12 2 32 0 45 -2 12 -4 2 -4 -23z"/>
<path d="M6640 4633 c0 -4 5 -15 10 -23 8 -13 10 -13 10 2 0 9 -4 20 -10 23
-5 3 -10 3 -10 -2z"/>
<path d="M1943 4598 c-19 -24 -23 -48 -9 -48 8 0 17 12 20 26 8 31 3 40 -11
22z"/>
<path d="M3770 4461 c0 -12 5 -21 10 -21 6 0 10 6 10 14 0 8 -4 18 -10 21 -5
3 -10 -3 -10 -14z"/>
<path d="M6595 4470 c3 -5 8 -10 11 -10 2 0 4 5 4 10 0 6 -5 10 -11 10 -5 0
-7 -4 -4 -10z"/>
<path d="M4515 4450 c3 -5 8 -10 11 -10 2 0 4 5 4 10 0 6 -5 10 -11 10 -5 0
-7 -4 -4 -10z"/>
<path d="M4540 4434 c0 -9 53 -54 63 -54 4 0 7 5 7 10 0 6 -6 10 -13 10 -7 0
-19 9 -27 20 -14 19 -30 27 -30 14z"/>
<path d="M7060 4433 c0 -14 15 -28 49 -46 48 -25 46 -17 -5 21 -24 18 -44 29
-44 25z"/>
<path d="M3755 4405 c3 -16 10 -32 14 -35 3 -3 12 -33 19 -67 7 -34 19 -77 26
-94 l13 -32 5 36 c3 27 1 33 -8 26 -8 -7 -14 3 -19 33 -4 24 -7 48 -6 55 1 6
-10 33 -25 60 -20 37 -25 41 -19 18z"/>
<path d="M4638 4353 c54 -47 63 -53 72 -53 6 0 10 5 10 10 0 6 -7 10 -15 10
-8 0 -15 4 -15 10 0 9 -51 40 -66 40 -4 0 2 -8 14 -17z"/>
<path d="M3817 4346 c-4 -10 -4 -35 -1 -55 7 -36 7 -36 15 -8 4 15 4 39 0 54
-6 24 -8 25 -14 9z"/>
<path d="M7160 4350 c0 -5 5 -10 11 -10 5 0 7 5 4 10 -3 6 -8 10 -11 10 -2 0
-4 -4 -4 -10z"/>
<path d="M1516 4303 c-6 -14 -5 -15 5 -6 7 7 10 15 7 18 -3 3 -9 -2 -12 -12z"/>
<path d="M6481 4274 c0 -11 3 -14 6 -6 3 7 2 16 -1 19 -3 4 -6 -2 -5 -13z"/>
<path d="M1485 4270 c-3 -5 -1 -10 4 -10 6 0 11 5 11 10 0 6 -2 10 -4 10 -3 0
-8 -4 -11 -10z"/>
<path d="M6415 4220 c-3 -5 -1 -10 4 -10 6 0 11 5 11 10 0 6 -2 10 -4 10 -3 0
-8 -4 -11 -10z"/>
<path d="M3960 4190 c0 -5 5 -10 10 -10 6 0 10 5 10 10 0 6 -4 10 -10 10 -5 0
-10 -4 -10 -10z"/>
<path d="M5372 4100 c0 -14 2 -19 5 -12 2 6 2 18 0 25 -3 6 -5 1 -5 -13z"/>
<path d="M3937 4060 c-4 -15 0 -20 14 -20 10 0 23 9 29 20 9 17 8 20 -13 20
-16 0 -26 -7 -30 -20z"/>
<path d="M3980 3971 c0 -17 4 -33 10 -36 11 -7 25 39 15 54 -12 21 -25 11 -25
-18z"/>
<path d="M8631 3934 c0 -11 3 -14 6 -6 3 7 2 16 -1 19 -3 4 -6 -2 -5 -13z"/>
<path d="M5120 3930 c0 -6 7 -10 15 -10 8 0 15 2 15 4 0 2 -7 6 -15 10 -8 3
-15 1 -15 -4z"/>
<path d="M3530 3916 c0 -9 5 -16 10 -16 6 0 10 4 10 9 0 6 -4 13 -10 16 -5 3
-10 -1 -10 -9z"/>
<path d="M5631 3904 c0 -11 3 -14 6 -6 3 7 2 16 -1 19 -3 4 -6 -2 -5 -13z"/>
<path d="M6085 3909 c-11 -16 -1 -19 13 -3 7 8 8 14 3 14 -5 0 -13 -5 -16 -11z"/>
<path d="M1036 3843 c-6 -14 -5 -15 5 -6 7 7 10 15 7 18 -3 3 -9 -2 -12 -12z"/>
<path d="M2748 3853 c7 -3 16 -2 19 1 4 3 -2 6 -13 5 -11 0 -14 -3 -6 -6z"/>
<path d="M7805 3850 c3 -5 8 -10 11 -10 2 0 4 5 4 10 0 6 -5 10 -11 10 -5 0
-7 -4 -4 -10z"/>
<path d="M4490 3820 c0 -16 7 -20 35 -20 28 0 35 4 35 20 0 16 -7 20 -35 20
-28 0 -35 -4 -35 -20z"/>
<path d="M5761 3824 c0 -11 3 -14 6 -6 3 7 2 16 -1 19 -3 4 -6 -2 -5 -13z"/>
<path d="M4472 3810 c0 -14 2 -19 5 -12 2 6 2 18 0 25 -3 6 -5 1 -5 -13z"/>
<path d="M8412 3800 c0 -14 2 -19 5 -12 2 6 2 18 0 25 -3 6 -5 1 -5 -13z"/>
<path d="M3361 3774 c0 -11 3 -14 6 -6 3 7 2 16 -1 19 -3 4 -6 -2 -5 -13z"/>
<path d="M3401 3774 c0 -11 3 -14 6 -6 3 7 2 16 -1 19 -3 4 -6 -2 -5 -13z"/>
<path d="M5743 3740 c0 -30 2 -43 4 -27 2 15 2 39 0 55 -2 15 -4 2 -4 -28z"/>
<path d="M950 3760 c-9 -6 -10 -10 -3 -10 6 0 15 5 18 10 8 12 4 12 -15 0z"/>
<path d="M4631 3744 c0 -11 3 -14 6 -6 3 7 2 16 -1 19 -3 4 -6 -2 -5 -13z"/>
<path d="M5326 3730 c8 -43 14 -51 14 -19 0 13 -5 31 -10 39 -7 11 -8 5 -4
-20z"/>
<path d="M5281 3704 c0 -11 3 -14 6 -6 3 7 2 16 -1 19 -3 4 -6 -2 -5 -13z"/>
<path d="M8118 3573 c7 -3 16 -2 19 1 4 3 -2 6 -13 5 -11 0 -14 -3 -6 -6z"/>
<path d="M8171 3564 c0 -11 3 -14 6 -6 3 7 2 16 -1 19 -3 4 -6 -2 -5 -13z"/>
<path d="M8002 3540 c0 -14 2 -19 5 -12 2 6 2 18 0 25 -3 6 -5 1 -5 -13z"/>
<path d="M8150 3534 c1 -12 39 -61 40 -51 0 5 -9 20 -20 34 -11 14 -20 22 -20
17z"/>
<path d="M3160 3440 c-9 -6 -10 -10 -3 -10 6 0 15 5 18 10 8 12 4 12 -15 0z"/>
<path d="M3090 3430 c0 -5 5 -10 11 -10 5 0 7 5 4 10 -3 6 -8 10 -11 10 -2 0
-4 -4 -4 -10z"/>
<path d="M3025 3420 c3 -5 8 -10 11 -10 2 0 4 5 4 10 0 6 -5 10 -11 10 -5 0
-7 -4 -4 -10z"/>
<path d="M8043 3423 c9 -2 25 -2 35 0 9 3 1 5 -18 5 -19 0 -27 -2 -17 -5z"/>
<path d="M2557 3169 c7 -7 15 -10 18 -7 3 3 -2 9 -12 12 -14 6 -15 5 -6 -5z"/>
<path d="M7610 3170 c0 -5 5 -10 11 -10 5 0 7 5 4 10 -3 6 -8 10 -11 10 -2 0
-4 -4 -4 -10z"/>
<path d="M2703 3146 c1 -17 9 -31 17 -33 10 -3 11 -2 4 4 -7 4 -14 19 -17 33
-4 22 -5 21 -4 -4z"/>
<path d="M2655 3110 c3 -5 8 -10 11 -10 2 0 4 5 4 10 0 6 -5 10 -11 10 -5 0
-7 -4 -4 -10z"/>
<path d="M4043 3063 c-7 -2 -13 -11 -13 -18 0 -8 -6 -18 -14 -22 -8 -4 -17
-21 -20 -38 -3 -16 -3 -23 0 -15 12 26 44 40 44 20 0 -5 -6 -10 -14 -10 -8 0
-18 -9 -21 -20 -4 -11 -11 -18 -16 -15 -5 4 -9 -7 -9 -24 0 -16 -3 -37 -7 -47
-4 -11 -3 -15 5 -11 6 4 13 -1 15 -10 4 -14 5 -13 6 5 1 17 7 22 26 22 23 0
25 4 25 46 0 37 3 45 15 40 8 -3 15 -1 15 5 0 6 11 20 25 31 14 11 25 23 25
28 0 11 -58 18 -69 7 -5 -5 -11 -4 -15 2 -4 6 -6 12 -4 12 2 1 66 5 143 9
l140 6 -135 1 c-74 1 -141 -1 -147 -4z m34 -55 c-3 -8 -6 -5 -6 6 -1 11 2 17
5 13 3 -3 4 -12 1 -19z"/>
<path d="M5958 3063 c23 -2 61 -2 85 0 23 2 4 4 -43 4 -47 0 -66 -2 -42 -4z"/>
<path d="M6133 3063 c36 -3 51 -10 63 -28 9 -13 25 -27 37 -31 48 -15 127 -85
127 -113 0 -14 2 -14 10 -1 15 23 12 2 -4 -28 -30 -56 -35 -57 -286 -70 -129
-6 -314 -19 -410 -27 -96 -8 -238 -19 -315 -25 -77 -6 -225 -17 -330 -25 -650
-49 -942 -63 -976 -44 -33 17 -32 5 1 -51 54 -91 30 -85 304 -72 132 7 293 17
356 22 105 9 440 35 780 60 381 28 567 40 688 42 l132 2 30 -29 c23 -22 27
-32 19 -42 -8 -9 -8 -13 -1 -13 6 0 14 5 17 10 3 6 17 10 31 10 29 0 91 60 96
93 2 14 9 21 21 21 22 -2 22 8 -3 48 -11 18 -20 39 -20 46 0 7 -13 33 -30 57
-16 24 -30 48 -30 54 0 6 -8 19 -19 30 -10 10 -21 25 -23 32 -4 11 -8 11 -18
2 -11 -10 -11 -15 0 -28 20 -25 2 -31 -19 -6 -10 12 -23 20 -28 19 -9 -3 -60
40 -52 44 2 2 12 8 22 13 41 22 14 30 -100 31 -65 0 -97 -1 -70 -3z m167 -18
c-29 -17 -44 -19 -35 -6 3 5 -3 12 -12 14 -10 3 2 5 27 5 44 1 44 1 20 -13z"/>
<path d="M6147 3015 c23 -31 33 -31 33 0 0 20 -5 25 -25 25 -26 0 -26 0 -8
-25z"/>
<path d="M6180 2970 c0 -5 14 -10 30 -10 17 0 30 5 30 10 0 6 -13 10 -30 10
-16 0 -30 -4 -30 -10z"/>
<path d="M6467 2951 c-16 -6 -17 -9 -4 -19 11 -10 18 -8 32 8 19 21 8 26 -28
11z"/>
<path d="M6325 2901 c-4 -8 -2 -17 6 -22 9 -6 4 -7 -16 -3 l-30 7 19 -22 c23
-25 23 -25 34 -3 12 21 0 62 -13 43z"/>
<path d="M3972 2830 c0 -14 2 -19 5 -12 2 6 2 18 0 25 -3 6 -5 1 -5 -13z"/>
<path d="M3993 2808 c1 -18 9 -31 27 -40 14 -7 38 -23 53 -35 33 -27 69 -33
43 -8 -8 8 -19 15 -25 15 -6 0 -11 5 -11 11 0 15 -42 48 -62 49 -9 0 -19 8
-21 18 -3 9 -4 5 -4 -10z"/>
<path d="M6510 2811 c0 -5 7 -12 16 -15 24 -9 27 -7 10 9 -17 17 -26 19 -26 6z"/>
<path d="M6565 2770 c3 -5 10 -10 16 -10 5 0 9 5 9 10 0 6 -7 10 -16 10 -8 0
-12 -4 -9 -10z"/>
<path d="M9795 2720 c-3 -6 1 -7 9 -4 18 7 21 14 7 14 -6 0 -13 -4 -16 -10z"/>
<path d="M4140 2690 c0 -5 5 -10 10 -10 6 0 10 5 10 10 0 6 -4 10 -10 10 -5 0
-10 -4 -10 -10z"/>
<path d="M6268 2623 c6 -2 18 -2 25 0 6 3 1 5 -13 5 -14 0 -19 -2 -12 -5z"/>
<path d="M6298 2573 c7 -3 16 -2 19 1 4 3 -2 6 -13 5 -11 0 -14 -3 -6 -6z"/>
<path d="M6386 2544 c-3 -9 -6 -27 -6 -40 0 -14 -4 -22 -10 -19 -5 3 -7 0 -4
-9 13 -34 -35 -45 -236 -56 -107 -6 -280 -17 -385 -25 -104 -8 -397 -30 -650
-49 -590 -45 -561 -43 -827 -52 -212 -7 -229 -6 -248 11 -29 26 -24 9 18 -70
l38 -70 140 2 c76 2 227 10 334 18 107 8 319 24 470 35 151 11 327 24 390 30
190 17 544 40 728 47 l173 6 29 -28 c17 -16 30 -37 30 -47 0 -10 5 -18 10 -18
6 0 10 7 10 15 0 8 8 15 18 15 9 0 26 7 36 15 11 8 37 15 57 15 21 0 40 4 43
9 6 10 -43 114 -56 119 -5 2 -8 9 -8 15 0 10 -79 147 -85 147 -2 0 -6 -7 -9
-16z m14 -284 c0 -5 -5 -10 -11 -10 -5 0 -7 5 -4 10 3 6 8 10 11 10 2 0 4 -4
4 -10z"/>
<path d="M6361 2534 c0 -11 3 -14 6 -6 3 7 2 16 -1 19 -3 4 -6 -2 -5 -13z"/>
<path d="M6472 2493 c-21 -8 -4 -21 23 -16 13 3 22 9 19 14 -6 10 -21 10 -42
2z"/>
<path d="M6834 2476 c-3 -8 -4 -29 -2 -48 3 -29 4 -27 8 15 5 48 3 58 -6 33z"/>
<path d="M3982 2390 c0 -14 2 -19 5 -12 2 6 2 18 0 25 -3 6 -5 1 -5 -13z"/>
<path d="M6388 2194 c-5 -4 -8 -24 -8 -45 0 -28 -7 -45 -29 -67 l-29 -29 -169
-7 c-92 -3 -400 -24 -683 -46 -824 -63 -904 -69 -1122 -80 -246 -13 -296 -12
-325 7 -30 18 -29 11 10 -50 19 -29 34 -55 35 -60 6 -34 14 -34 227 -26 116 4
253 13 305 18 52 6 176 15 275 21 99 6 223 15 275 20 87 9 281 24 645 49 77 6
218 13 313 17 167 7 173 6 192 -14 23 -25 26 -42 6 -42 -9 0 -12 -7 -9 -20 6
-24 -43 -133 -57 -125 -6 4 -7 -1 -3 -10 3 -10 2 -20 -3 -24 -5 -3 -31 -35
-59 -71 -107 -139 -238 -249 -317 -265 -15 -3 -33 -12 -42 -20 -8 -8 -19 -15
-25 -15 -6 0 -11 -4 -11 -10 0 -20 -94 -156 -136 -196 -48 -46 -108 -79 -127
-68 -6 4 -9 3 -4 -1 12 -13 -63 -35 -120 -35 -46 0 -53 -3 -53 -19 0 -33 -22
-36 -46 -6 -19 24 -25 27 -38 16 -17 -14 -22 -2 -8 15 5 5 3 20 -4 34 -8 14
-14 23 -14 20 -4 -29 -4 -120 -1 -120 3 0 15 9 27 21 16 15 23 17 27 7 13 -34
-76 -91 -102 -65 -8 8 -11 4 -11 -14 0 -40 -13 -43 -30 -7 -12 26 -22 33 -45
34 -48 2 -49 3 -30 24 18 20 18 21 -3 43 -24 25 -29 47 -10 47 6 0 9 3 6 6 -3
3 -15 0 -26 -7 -20 -13 -20 -13 5 -43 15 -19 21 -32 14 -34 -6 -2 -21 8 -32
22 -15 18 -30 26 -53 26 -49 0 -169 34 -196 56 -62 49 -111 106 -158 183 -50
80 -72 100 -124 109 -44 9 -160 69 -207 108 -12 10 -61 56 -109 101 -47 45
-88 80 -91 77 -3 -3 -1 -8 5 -12 6 -4 17 -19 25 -34 25 -48 111 -182 132 -205
11 -13 27 -23 34 -23 22 0 43 -26 43 -52 0 -25 65 -135 78 -130 4 1 16 -6 27
-15 11 -10 43 -20 75 -23 41 -4 54 -9 52 -19 -5 -23 8 -62 17 -56 14 8 41 -6
41 -22 0 -8 4 -12 9 -8 5 3 12 1 16 -5 3 -5 24 -10 45 -10 31 0 43 -5 55 -24
9 -13 32 -35 51 -48 19 -12 32 -28 30 -34 -5 -14 41 -84 54 -84 6 0 10 -9 10
-21 0 -15 5 -19 16 -15 12 4 14 1 9 -14 -5 -16 -2 -20 14 -20 24 0 27 -10 9
-28 -15 -15 5 -17 32 -2 14 8 21 6 28 -6 7 -13 11 -2 16 40 4 31 12 56 17 56
5 0 9 -4 9 -8 0 -5 22 -14 49 -21 32 -8 59 -23 78 -44 44 -49 47 -57 27 -72
-17 -13 -17 -14 -2 -15 9 0 24 -10 32 -21 l15 -22 7 27 c6 25 9 26 78 26 39 0
88 3 108 6 l37 6 7 69 c4 47 11 69 20 69 7 0 16 -5 19 -10 4 -6 11 -5 20 4 16
15 140 40 155 31 6 -4 11 -27 11 -53 2 -73 11 -97 37 -100 13 -1 31 6 40 15
16 16 16 16 0 10 -13 -5 -18 -1 -18 13 0 11 6 20 14 20 8 0 23 11 34 25 11 14
27 25 36 25 9 0 19 12 22 27 6 24 8 25 20 8 12 -16 13 -16 19 8 4 14 4 30 1
36 -4 5 2 11 11 14 10 2 -4 7 -32 11 -27 4 -66 11 -85 15 l-35 8 25 11 c14 6
21 11 16 11 -4 1 3 16 16 34 14 17 28 42 32 54 10 31 45 73 62 73 11 0 14 -19
14 -95 0 -89 1 -95 21 -95 11 0 18 4 14 10 -7 12 36 56 52 52 17 -4 17 15 1
21 -7 2 -10 7 -6 11 7 8 58 -16 100 -47 46 -34 46 -8 1 33 -36 32 -40 40 -28
50 12 10 15 9 16 -6 0 -13 4 -11 11 9 8 22 13 26 24 16 12 -9 14 -4 14 30 l0
41 -111 0 c-71 0 -108 4 -104 10 3 6 18 10 33 10 45 0 102 20 102 35 0 8 5 16
10 16 6 1 15 2 21 3 6 0 17 9 24 20 13 18 14 17 19 -5 3 -13 7 -37 8 -54 3
-27 7 -30 43 -33 23 -2 52 1 65 7 18 7 20 10 8 10 -10 1 -18 4 -18 7 0 9 28
34 38 34 14 0 52 45 52 63 0 23 20 22 21 0 1 -10 5 0 10 22 14 71 13 75 -29
75 -56 0 -87 41 -41 55 12 4 18 12 15 21 -3 7 -1 16 4 19 6 4 11 21 11 38 l1
32 8 -30 c6 -23 8 -25 10 -10 2 11 3 26 3 33 -1 7 4 11 11 9 6 -2 13 -35 16
-79 3 -42 8 -80 13 -84 4 -4 7 -2 7 4 0 7 12 12 28 12 21 0 24 2 12 10 -13 9
-12 12 4 21 15 9 16 13 5 20 -9 5 -9 9 -3 9 7 0 15 11 18 25 6 24 26 36 26 15
0 -5 7 -10 16 -10 13 0 15 7 10 33 -3 17 -7 41 -8 52 -4 25 -16 35 -44 35 -12
0 -25 8 -28 17 -5 12 -9 14 -14 6 -4 -7 -7 6 -7 27 0 21 3 33 7 27 17 -27 6 9
-17 55 -14 27 -25 61 -25 74 0 23 2 24 88 25 48 1 98 5 112 9 14 4 20 8 14 9
-6 1 -14 19 -18 40 -3 22 -9 41 -13 43 -5 1 -19 23 -32 48 -13 25 -38 68 -56
95 -18 28 -36 60 -39 73 -4 12 -11 22 -16 22 -5 0 -10 9 -12 21 -2 11 -6 17
-10 13z m-26 -328 c5 -24 -6 -56 -15 -46 -3 3 -8 20 -12 38 -5 25 -3 32 8 32
8 0 17 -11 19 -24z m-1965 -658 c-3 -8 -6 -5 -6 6 -1 11 2 17 5 13 3 -3 4 -12
1 -19z m227 -44 c29 -11 16 -24 -24 -24 -29 0 -40 4 -40 15 0 16 35 20 64 9z
m1263 -40 c-3 -3 -12 -4 -19 -1 -8 3 -5 6 6 6 11 1 17 -2 13 -5z m-1232 -74
c3 -5 1 -10 -4 -10 -6 0 -11 5 -11 10 0 6 2 10 4 10 3 0 8 -4 11 -10z m643
-130 c-14 -22 -24 -19 -15 5 4 8 11 15 17 15 6 0 6 -7 -2 -20z m-248 -51 c0
-14 10 -25 30 -32 36 -14 42 -42 8 -32 -13 4 -31 16 -40 27 -19 21 -25 74 -8
63 6 -3 10 -15 10 -26z m65 21 c-3 -5 -1 -10 6 -10 7 0 10 -2 7 -5 -7 -8 -38
5 -38 16 0 5 7 9 16 9 8 0 12 -4 9 -10z m120 -15 c-41 -13 -51 -12 -42 2 3 4
23 9 44 9 l38 1 -40 -12z m492 -157 c-3 -7 -5 -2 -5 12 0 14 2 19 5 13 2 -7 2
-19 0 -25z"/>
<path d="M6605 2190 c-3 -5 -1 -10 4 -10 6 0 11 5 11 10 0 6 -2 10 -4 10 -3 0
-8 -4 -11 -10z"/>
<path d="M6351 2144 c0 -11 3 -14 6 -6 3 7 2 16 -1 19 -3 4 -6 -2 -5 -13z"/>
<path d="M9000 2070 c-9 -6 -10 -10 -3 -10 6 0 15 5 18 10 8 12 4 12 -15 0z"/>
<path d="M1385 2030 c-3 -5 -1 -10 4 -10 6 0 11 5 11 10 0 6 -2 10 -4 10 -3 0
-8 -4 -11 -10z"/>
<path d="M2320 2036 c0 -2 7 -6 15 -10 8 -3 15 -1 15 4 0 6 -7 10 -15 10 -8 0
-15 -2 -15 -4z"/>
<path d="M7380 2030 c0 -5 5 -10 11 -10 5 0 7 5 4 10 -3 6 -8 10 -11 10 -2 0
-4 -4 -4 -10z"/>
<path d="M7491 1944 c0 -11 3 -14 6 -6 3 7 2 16 -1 19 -3 4 -6 -2 -5 -13z"/>
<path d="M3790 1920 c-9 -6 -10 -10 -3 -10 6 0 15 5 18 10 8 12 4 12 -15 0z"/>
<path d="M6248 1873 c6 -2 18 -2 25 0 6 3 1 5 -13 5 -14 0 -19 -2 -12 -5z"/>
<path d="M6138 1843 c7 -3 16 -2 19 1 4 3 -2 6 -13 5 -11 0 -14 -3 -6 -6z"/>
<path d="M6178 1833 c7 -3 16 -2 19 1 4 3 -2 6 -13 5 -11 0 -14 -3 -6 -6z"/>
<path d="M6228 1830 c-11 -7 -16 -23 -15 -56 0 -41 2 -45 13 -29 8 10 11 29 8
42 -5 17 -2 23 10 23 9 0 16 7 16 15 0 17 -8 18 -32 5z"/>
<path d="M6148 1793 c7 -3 16 -2 19 1 4 3 -2 6 -13 5 -11 0 -14 -3 -6 -6z"/>
<path d="M1213 1773 c9 -2 23 -2 30 0 6 3 -1 5 -18 5 -16 0 -22 -2 -12 -5z"/>
<path d="M6167 1758 c-8 -29 -4 -32 11 -8 6 10 8 21 3 24 -5 3 -11 -4 -14 -16z"/>
<path d="M6247 1766 c-4 -10 -1 -13 9 -9 7 3 14 9 14 14 0 14 -17 10 -23 -5z"/>
<path d="M6185 1710 c-3 -5 1 -10 9 -10 9 0 16 5 16 10 0 6 -4 10 -9 10 -6 0
-13 -4 -16 -10z"/>
<path d="M6140 1691 c0 -5 -10 -7 -22 -5 -13 2 -16 1 -8 -2 8 -4 18 -12 22
-18 5 -8 8 -7 8 2 0 6 7 12 16 12 8 0 12 5 9 10 -8 12 -25 13 -25 1z"/>
<path d="M6040 1640 c0 -5 5 -10 10 -10 6 0 10 5 10 10 0 6 -4 10 -10 10 -5 0
-10 -4 -10 -10z"/>
<path d="M3485 1630 c-3 -5 -1 -10 4 -10 6 0 11 5 11 10 0 6 -2 10 -4 10 -3 0
-8 -4 -11 -10z"/>
<path d="M6020 1565 c-7 -9 -8 -15 -2 -15 5 0 12 7 16 15 3 8 4 15 2 15 -2 0
-9 -7 -16 -15z"/>
<path d="M921 1524 c0 -11 3 -14 6 -6 3 7 2 16 -1 19 -3 4 -6 -2 -5 -13z"/>
<path d="M5810 1430 c0 -5 5 -10 10 -10 6 0 10 5 10 10 0 6 -4 10 -10 10 -5 0
-10 -4 -10 -10z"/>
<path d="M5756 1403 c-6 -14 -5 -15 5 -6 7 7 10 15 7 18 -3 3 -9 -2 -12 -12z"/>
<path d="M5710 1322 c6 -13 14 -21 18 -18 3 4 -2 14 -12 24 -18 16 -18 16 -6
-6z"/>
<path d="M690 1290 c0 -5 5 -10 11 -10 5 0 7 5 4 10 -3 6 -8 10 -11 10 -2 0
-4 -4 -4 -10z"/>
<path d="M426 1221 c10 -10 21 -17 23 -15 6 6 -20 34 -32 34 -6 0 -2 -8 9 -19z"/>
<path d="M5590 1230 c0 -5 5 -10 11 -10 5 0 7 5 4 10 -3 6 -8 10 -11 10 -2 0
-4 -4 -4 -10z"/>
<path d="M5505 1210 c26 -11 35 -12 35 -2 0 4 -12 8 -27 9 -24 1 -25 1 -8 -7z"/>
<path d="M5495 1160 c0 -22 3 -40 8 -40 4 0 7 18 7 40 0 22 -3 40 -7 40 -5 0
-8 -18 -8 -40z"/>
<path d="M5352 1155 c0 -16 2 -22 5 -12 2 9 2 23 0 30 -3 6 -5 -1 -5 -18z"/>
<path d="M5560 1170 c-9 -6 -10 -10 -3 -10 6 0 15 5 18 10 8 12 4 12 -15 0z"/>
<path d="M5461 1154 c0 -11 3 -14 6 -6 3 7 2 16 -1 19 -3 4 -6 -2 -5 -13z"/>
<path d="M5395 1140 c3 -5 8 -10 11 -10 2 0 4 5 4 10 0 6 -5 10 -11 10 -5 0
-7 -4 -4 -10z"/>
<path d="M3380 1126 c0 -2 7 -7 16 -10 8 -3 12 -2 9 4 -6 10 -25 14 -25 6z"/>
<path d="M5475 1100 c-3 -5 1 -10 9 -10 9 0 16 5 16 10 0 6 -4 10 -9 10 -6 0
-13 -4 -16 -10z"/>
<path d="M5308 1093 c6 -2 18 -2 25 0 6 3 1 5 -13 5 -14 0 -19 -2 -12 -5z"/>
<path d="M5281 1069 c-1 -33 17 -49 44 -38 18 7 17 8 -7 8 -21 1 -28 7 -31 29
l-4 27 -2 -26z"/>
<path d="M5352 1065 c0 -16 2 -22 5 -12 2 9 2 23 0 30 -3 6 -5 -1 -5 -18z"/>
<path d="M5388 1055 c-2 -19 -1 -35 3 -35 4 0 9 16 11 35 2 19 1 35 -3 35 -4
0 -9 -16 -11 -35z"/>
<path d="M5440 1080 c0 -5 5 -10 10 -10 6 0 10 5 10 10 0 6 -4 10 -10 10 -5 0
-10 -4 -10 -10z"/>
<path d="M5165 1040 c-7 -12 2 -12 30 0 19 8 19 9 -2 9 -12 1 -25 -3 -28 -9z"/>
<path d="M5070 1033 c0 -11 59 -77 64 -72 12 11 17 59 7 59 -6 0 -11 -7 -11
-17 0 -12 -6 -10 -23 10 -22 27 -37 34 -37 20z"/>
<path d="M1005 1010 c3 -5 8 -10 11 -10 2 0 4 5 4 10 0 6 -5 10 -11 10 -5 0
-7 -4 -4 -10z"/>
<path d="M5180 987 c-10 -21 -11 -30 -2 -39 17 -17 24 -5 20 34 l-4 33 -14
-28z"/>
<path d="M141 981 c-6 -11 -7 -22 -2 -25 5 -3 11 4 14 16 8 30 1 35 -12 9z"/>
<path d="M190 949 c0 -5 5 -7 10 -4 6 3 10 8 10 11 0 2 -4 4 -10 4 -5 0 -10
-5 -10 -11z"/>
<path d="M8660 945 c0 -8 4 -15 10 -15 5 0 7 7 4 15 -4 8 -8 15 -10 15 -2 0
-4 -7 -4 -15z"/>
<path d="M6120 919 c0 -5 5 -7 10 -4 6 3 10 8 10 11 0 2 -4 4 -10 4 -5 0 -10
-5 -10 -11z"/>
<path d="M6200 893 c8 -3 23 -10 32 -15 14 -6 16 -5 12 7 -4 8 -18 15 -33 14
-15 0 -20 -3 -11 -6z"/>
<path d="M7560 830 c0 -5 5 -10 10 -10 6 0 10 5 10 10 0 6 -4 10 -10 10 -5 0
-10 -4 -10 -10z"/>
<path d="M9991 744 c0 -11 3 -14 6 -6 3 7 2 16 -1 19 -3 4 -6 -2 -5 -13z"/>
<path d="M10001 704 c0 -11 3 -14 6 -6 3 7 2 16 -1 19 -3 4 -6 -2 -5 -13z"/>
<path d="M9795 700 c-3 -5 -1 -10 4 -10 6 0 11 5 11 10 0 6 -2 10 -4 10 -3 0
-8 -4 -11 -10z"/>
<path d="M9830 700 c0 -5 5 -10 11 -10 5 0 7 5 4 10 -3 6 -8 10 -11 10 -2 0
-4 -4 -4 -10z"/>
<path d="M5470 645 c0 -19 5 -37 10 -40 6 -3 10 3 10 14 0 30 30 41 116 41 43
0 75 2 73 4 -2 2 -50 7 -107 10 l-102 5 0 -34z"/>
<path d="M5093 663 c9 -2 25 -2 35 0 9 3 1 5 -18 5 -19 0 -27 -2 -17 -5z"/>
<path d="M2280 609 c0 -5 5 -7 10 -4 6 3 10 8 10 11 0 2 -4 4 -10 4 -5 0 -10
-5 -10 -11z"/>
<path d="M9727 468 c2 -5 10 -8 18 -8 8 0 16 3 18 8 3 4 -5 7 -18 7 -13 0 -21
-3 -18 -7z"/>
<path d="M9431 354 c0 -11 3 -14 6 -6 3 7 2 16 -1 19 -3 4 -6 -2 -5 -13z"/>
<path d="M1809 290 c-6 -45 -4 -58 7 -48 3 3 4 26 2 49 l-3 44 -6 -45z"/>
<path d="M4483 280 c0 -30 2 -43 4 -27 2 15 2 39 0 55 -2 15 -4 2 -4 -28z"/>
<path d="M9338 300 c2 -16 9 -30 14 -30 5 0 6 10 3 23 -11 35 -22 40 -17 7z"/>
<path d="M9461 283 c23 -29 37 -43 44 -43 10 0 -39 59 -49 59 -5 1 -2 -7 5
-16z"/>
<path d="M9296 205 c-19 -15 -19 -15 2 -15 13 0 22 6 22 15 0 18 0 18 -24 0z"/>
</g>
</svg>
